<?xml version="1.0" encoding="utf-8" standalone="no"?>
<!DOCTYPE svg PUBLIC "-//W3C//DTD SVG 1.1//EN"
  "http://www.w3.org/Graphics/SVG/1.1/DTD/svg11.dtd">
<svg xmlns:xlink="http://www.w3.org/1999/xlink" width="1080pt" height="864pt" viewBox="0 0 1080 864" xmlns="http://www.w3.org/2000/svg" version="1.1">
 <metadata>
  <rdf:RDF xmlns:dc="http://purl.org/dc/elements/1.1/" xmlns:cc="http://creativecommons.org/ns#" xmlns:rdf="http://www.w3.org/1999/02/22-rdf-syntax-ns#">
   <cc:Work>
    <dc:type rdf:resource="http://purl.org/dc/dcmitype/StillImage"/>
    <dc:date>2026-05-08T15:46:10.795034</dc:date>
    <dc:format>image/svg+xml</dc:format>
    <dc:creator>
     <cc:Agent>
      <dc:title>Matplotlib v3.10.9, https://matplotlib.org/</dc:title>
     </cc:Agent>
    </dc:creator>
   </cc:Work>
  </rdf:RDF>
 </metadata>
 <defs>
  <style type="text/css">*{stroke-linejoin: round; stroke-linecap: butt}</style>
 </defs>
 <g id="figure_1">
  <g id="patch_1">
   <path d="M 0 864
L 1080 864
L 1080 0
L 0 0
z
" style="fill: #ffffff"/>
  </g>
  <g id="axes_1">
   <g id="patch_2">
    <path d="M 60.3 246.42
L 1067.04 246.42
L 1067.04 29.76
L 60.3 29.76
z
" style="fill: #ffffff"/>
   </g>
   <g id="matplotlib.axis_1">
    <g id="xtick_1">
     <g id="line2d_1">
      <path d="M 106.060909 246.42
L 106.060909 29.76
" clip-path="url(#pb3bf763499)" style="fill: none; stroke: #cccccc; stroke-linecap: round"/>
     </g>
     <g id="text_1">
      <!-- 0.0 -->
      <g style="fill: #262626" transform="translate(97.31419 264.278281) scale(0.11 -0.11)">
       <defs>
        <path id="DejaVuSans-30" d="M 2034 4250
Q 1547 4250 1301 3770
Q 1056 3291 1056 2328
Q 1056 1369 1301 889
Q 1547 409 2034 409
Q 2525 409 2770 889
Q 3016 1369 3016 2328
Q 3016 3291 2770 3770
Q 2525 4250 2034 4250
z
M 2034 4750
Q 2819 4750 3233 4129
Q 3647 3509 3647 2328
Q 3647 1150 3233 529
Q 2819 -91 2034 -91
Q 1250 -91 836 529
Q 422 1150 422 2328
Q 422 3509 836 4129
Q 1250 4750 2034 4750
z
" transform="scale(0.015625)"/>
        <path id="DejaVuSans-2e" d="M 684 794
L 1344 794
L 1344 0
L 684 0
L 684 794
z
" transform="scale(0.015625)"/>
       </defs>
       <use xlink:href="#DejaVuSans-30"/>
       <use xlink:href="#DejaVuSans-2e" transform="translate(63.623047 0)"/>
       <use xlink:href="#DejaVuSans-30" transform="translate(95.410156 0)"/>
      </g>
     </g>
    </g>
    <g id="xtick_2">
     <g id="line2d_2">
      <path d="M 289.104545 246.42
L 289.104545 29.76
" clip-path="url(#pb3bf763499)" style="fill: none; stroke: #cccccc; stroke-linecap: round"/>
     </g>
     <g id="text_2">
      <!-- 0.5 -->
      <g style="fill: #262626" transform="translate(280.357827 264.278281) scale(0.11 -0.11)">
       <defs>
        <path id="DejaVuSans-35" d="M 691 4666
L 3169 4666
L 3169 4134
L 1269 4134
L 1269 2991
Q 1406 3038 1543 3061
Q 1681 3084 1819 3084
Q 2600 3084 3056 2656
Q 3513 2228 3513 1497
Q 3513 744 3044 326
Q 2575 -91 1722 -91
Q 1428 -91 1123 -41
Q 819 9 494 109
L 494 744
Q 775 591 1075 516
Q 1375 441 1709 441
Q 2250 441 2565 725
Q 2881 1009 2881 1497
Q 2881 1984 2565 2268
Q 2250 2553 1709 2553
Q 1456 2553 1204 2497
Q 953 2441 691 2322
L 691 4666
z
" transform="scale(0.015625)"/>
       </defs>
       <use xlink:href="#DejaVuSans-30"/>
       <use xlink:href="#DejaVuSans-2e" transform="translate(63.623047 0)"/>
       <use xlink:href="#DejaVuSans-35" transform="translate(95.410156 0)"/>
      </g>
     </g>
    </g>
    <g id="xtick_3">
     <g id="line2d_3">
      <path d="M 472.148182 246.42
L 472.148182 29.76
" clip-path="url(#pb3bf763499)" style="fill: none; stroke: #cccccc; stroke-linecap: round"/>
     </g>
     <g id="text_3">
      <!-- 1.0 -->
      <g style="fill: #262626" transform="translate(463.401463 264.278281) scale(0.11 -0.11)">
       <defs>
        <path id="DejaVuSans-31" d="M 794 531
L 1825 531
L 1825 4091
L 703 3866
L 703 4441
L 1819 4666
L 2450 4666
L 2450 531
L 3481 531
L 3481 0
L 794 0
L 794 531
z
" transform="scale(0.015625)"/>
       </defs>
       <use xlink:href="#DejaVuSans-31"/>
       <use xlink:href="#DejaVuSans-2e" transform="translate(63.623047 0)"/>
       <use xlink:href="#DejaVuSans-30" transform="translate(95.410156 0)"/>
      </g>
     </g>
    </g>
    <g id="xtick_4">
     <g id="line2d_4">
      <path d="M 655.191818 246.42
L 655.191818 29.76
" clip-path="url(#pb3bf763499)" style="fill: none; stroke: #cccccc; stroke-linecap: round"/>
     </g>
     <g id="text_4">
      <!-- 1.5 -->
      <g style="fill: #262626" transform="translate(646.445099 264.278281) scale(0.11 -0.11)">
       <use xlink:href="#DejaVuSans-31"/>
       <use xlink:href="#DejaVuSans-2e" transform="translate(63.623047 0)"/>
       <use xlink:href="#DejaVuSans-35" transform="translate(95.410156 0)"/>
      </g>
     </g>
    </g>
    <g id="xtick_5">
     <g id="line2d_5">
      <path d="M 838.235455 246.42
L 838.235455 29.76
" clip-path="url(#pb3bf763499)" style="fill: none; stroke: #cccccc; stroke-linecap: round"/>
     </g>
     <g id="text_5">
      <!-- 2.0 -->
      <g style="fill: #262626" transform="translate(829.488736 264.278281) scale(0.11 -0.11)">
       <defs>
        <path id="DejaVuSans-32" d="M 1228 531
L 3431 531
L 3431 0
L 469 0
L 469 531
Q 828 903 1448 1529
Q 2069 2156 2228 2338
Q 2531 2678 2651 2914
Q 2772 3150 2772 3378
Q 2772 3750 2511 3984
Q 2250 4219 1831 4219
Q 1534 4219 1204 4116
Q 875 4013 500 3803
L 500 4441
Q 881 4594 1212 4672
Q 1544 4750 1819 4750
Q 2544 4750 2975 4387
Q 3406 4025 3406 3419
Q 3406 3131 3298 2873
Q 3191 2616 2906 2266
Q 2828 2175 2409 1742
Q 1991 1309 1228 531
z
" transform="scale(0.015625)"/>
       </defs>
       <use xlink:href="#DejaVuSans-32"/>
       <use xlink:href="#DejaVuSans-2e" transform="translate(63.623047 0)"/>
       <use xlink:href="#DejaVuSans-30" transform="translate(95.410156 0)"/>
      </g>
     </g>
    </g>
    <g id="xtick_6">
     <g id="line2d_6">
      <path d="M 1021.279091 246.42
L 1021.279091 29.76
" clip-path="url(#pb3bf763499)" style="fill: none; stroke: #cccccc; stroke-linecap: round"/>
     </g>
     <g id="text_6">
      <!-- 2.5 -->
      <g style="fill: #262626" transform="translate(1012.532372 264.278281) scale(0.11 -0.11)">
       <use xlink:href="#DejaVuSans-32"/>
       <use xlink:href="#DejaVuSans-2e" transform="translate(63.623047 0)"/>
       <use xlink:href="#DejaVuSans-35" transform="translate(95.410156 0)"/>
      </g>
     </g>
    </g>
    <g id="text_7">
     <!-- Time (ms) -->
     <g style="fill: #262626" transform="translate(533.430937 279.684063) scale(0.12 -0.12)">
      <defs>
       <path id="DejaVuSans-54" d="M -19 4666
L 3928 4666
L 3928 4134
L 2272 4134
L 2272 0
L 1638 0
L 1638 4134
L -19 4134
L -19 4666
z
" transform="scale(0.015625)"/>
       <path id="DejaVuSans-69" d="M 603 3500
L 1178 3500
L 1178 0
L 603 0
L 603 3500
z
M 603 4863
L 1178 4863
L 1178 4134
L 603 4134
L 603 4863
z
" transform="scale(0.015625)"/>
       <path id="DejaVuSans-6d" d="M 3328 2828
Q 3544 3216 3844 3400
Q 4144 3584 4550 3584
Q 5097 3584 5394 3201
Q 5691 2819 5691 2113
L 5691 0
L 5113 0
L 5113 2094
Q 5113 2597 4934 2840
Q 4756 3084 4391 3084
Q 3944 3084 3684 2787
Q 3425 2491 3425 1978
L 3425 0
L 2847 0
L 2847 2094
Q 2847 2600 2669 2842
Q 2491 3084 2119 3084
Q 1678 3084 1418 2786
Q 1159 2488 1159 1978
L 1159 0
L 581 0
L 581 3500
L 1159 3500
L 1159 2956
Q 1356 3278 1631 3431
Q 1906 3584 2284 3584
Q 2666 3584 2933 3390
Q 3200 3197 3328 2828
z
" transform="scale(0.015625)"/>
       <path id="DejaVuSans-65" d="M 3597 1894
L 3597 1613
L 953 1613
Q 991 1019 1311 708
Q 1631 397 2203 397
Q 2534 397 2845 478
Q 3156 559 3463 722
L 3463 178
Q 3153 47 2828 -22
Q 2503 -91 2169 -91
Q 1331 -91 842 396
Q 353 884 353 1716
Q 353 2575 817 3079
Q 1281 3584 2069 3584
Q 2775 3584 3186 3129
Q 3597 2675 3597 1894
z
M 3022 2063
Q 3016 2534 2758 2815
Q 2500 3097 2075 3097
Q 1594 3097 1305 2825
Q 1016 2553 972 2059
L 3022 2063
z
" transform="scale(0.015625)"/>
       <path id="DejaVuSans-20" transform="scale(0.015625)"/>
       <path id="DejaVuSans-28" d="M 1984 4856
Q 1566 4138 1362 3434
Q 1159 2731 1159 2009
Q 1159 1288 1364 580
Q 1569 -128 1984 -844
L 1484 -844
Q 1016 -109 783 600
Q 550 1309 550 2009
Q 550 2706 781 3412
Q 1013 4119 1484 4856
L 1984 4856
z
" transform="scale(0.015625)"/>
       <path id="DejaVuSans-73" d="M 2834 3397
L 2834 2853
Q 2591 2978 2328 3040
Q 2066 3103 1784 3103
Q 1356 3103 1142 2972
Q 928 2841 928 2578
Q 928 2378 1081 2264
Q 1234 2150 1697 2047
L 1894 2003
Q 2506 1872 2764 1633
Q 3022 1394 3022 966
Q 3022 478 2636 193
Q 2250 -91 1575 -91
Q 1294 -91 989 -36
Q 684 19 347 128
L 347 722
Q 666 556 975 473
Q 1284 391 1588 391
Q 1994 391 2212 530
Q 2431 669 2431 922
Q 2431 1156 2273 1281
Q 2116 1406 1581 1522
L 1381 1569
Q 847 1681 609 1914
Q 372 2147 372 2553
Q 372 3047 722 3315
Q 1072 3584 1716 3584
Q 2034 3584 2315 3537
Q 2597 3491 2834 3397
z
" transform="scale(0.015625)"/>
       <path id="DejaVuSans-29" d="M 513 4856
L 1013 4856
Q 1481 4119 1714 3412
Q 1947 2706 1947 2009
Q 1947 1309 1714 600
Q 1481 -109 1013 -844
L 513 -844
Q 928 -128 1133 580
Q 1338 1288 1338 2009
Q 1338 2731 1133 3434
Q 928 4138 513 4856
z
" transform="scale(0.015625)"/>
      </defs>
      <use xlink:href="#DejaVuSans-54"/>
      <use xlink:href="#DejaVuSans-69" transform="translate(57.958984 0)"/>
      <use xlink:href="#DejaVuSans-6d" transform="translate(85.742188 0)"/>
      <use xlink:href="#DejaVuSans-65" transform="translate(183.154297 0)"/>
      <use xlink:href="#DejaVuSans-20" transform="translate(244.677734 0)"/>
      <use xlink:href="#DejaVuSans-28" transform="translate(276.464844 0)"/>
      <use xlink:href="#DejaVuSans-6d" transform="translate(315.478516 0)"/>
      <use xlink:href="#DejaVuSans-73" transform="translate(412.890625 0)"/>
      <use xlink:href="#DejaVuSans-29" transform="translate(464.990234 0)"/>
     </g>
    </g>
   </g>
   <g id="matplotlib.axis_2">
    <g id="ytick_1">
     <g id="line2d_7">
      <path d="M 60.3 235.016842
L 1067.04 235.016842
" clip-path="url(#pb3bf763499)" style="fill: none; stroke: #cccccc; stroke-linecap: round"/>
     </g>
     <g id="text_8">
      <!-- 0 -->
      <g style="fill: #262626" transform="translate(43.80125 239.195983) scale(0.11 -0.11)">
       <use xlink:href="#DejaVuSans-30"/>
      </g>
     </g>
    </g>
    <g id="ytick_2">
     <g id="line2d_8">
      <path d="M 60.3 189.404211
L 1067.04 189.404211
" clip-path="url(#pb3bf763499)" style="fill: none; stroke: #cccccc; stroke-linecap: round"/>
     </g>
     <g id="text_9">
      <!-- 20 -->
      <g style="fill: #262626" transform="translate(36.8025 193.583351) scale(0.11 -0.11)">
       <use xlink:href="#DejaVuSans-32"/>
       <use xlink:href="#DejaVuSans-30" transform="translate(63.623047 0)"/>
      </g>
     </g>
    </g>
    <g id="ytick_3">
     <g id="line2d_9">
      <path d="M 60.3 143.791579
L 1067.04 143.791579
" clip-path="url(#pb3bf763499)" style="fill: none; stroke: #cccccc; stroke-linecap: round"/>
     </g>
     <g id="text_10">
      <!-- 40 -->
      <g style="fill: #262626" transform="translate(36.8025 147.97072) scale(0.11 -0.11)">
       <defs>
        <path id="DejaVuSans-34" d="M 2419 4116
L 825 1625
L 2419 1625
L 2419 4116
z
M 2253 4666
L 3047 4666
L 3047 1625
L 3713 1625
L 3713 1100
L 3047 1100
L 3047 0
L 2419 0
L 2419 1100
L 313 1100
L 313 1709
L 2253 4666
z
" transform="scale(0.015625)"/>
       </defs>
       <use xlink:href="#DejaVuSans-34"/>
       <use xlink:href="#DejaVuSans-30" transform="translate(63.623047 0)"/>
      </g>
     </g>
    </g>
    <g id="ytick_4">
     <g id="line2d_10">
      <path d="M 60.3 98.178947
L 1067.04 98.178947
" clip-path="url(#pb3bf763499)" style="fill: none; stroke: #cccccc; stroke-linecap: round"/>
     </g>
     <g id="text_11">
      <!-- 60 -->
      <g style="fill: #262626" transform="translate(36.8025 102.358088) scale(0.11 -0.11)">
       <defs>
        <path id="DejaVuSans-36" d="M 2113 2584
Q 1688 2584 1439 2293
Q 1191 2003 1191 1497
Q 1191 994 1439 701
Q 1688 409 2113 409
Q 2538 409 2786 701
Q 3034 994 3034 1497
Q 3034 2003 2786 2293
Q 2538 2584 2113 2584
z
M 3366 4563
L 3366 3988
Q 3128 4100 2886 4159
Q 2644 4219 2406 4219
Q 1781 4219 1451 3797
Q 1122 3375 1075 2522
Q 1259 2794 1537 2939
Q 1816 3084 2150 3084
Q 2853 3084 3261 2657
Q 3669 2231 3669 1497
Q 3669 778 3244 343
Q 2819 -91 2113 -91
Q 1303 -91 875 529
Q 447 1150 447 2328
Q 447 3434 972 4092
Q 1497 4750 2381 4750
Q 2619 4750 2861 4703
Q 3103 4656 3366 4563
z
" transform="scale(0.015625)"/>
       </defs>
       <use xlink:href="#DejaVuSans-36"/>
       <use xlink:href="#DejaVuSans-30" transform="translate(63.623047 0)"/>
      </g>
     </g>
    </g>
    <g id="ytick_5">
     <g id="line2d_11">
      <path d="M 60.3 52.566316
L 1067.04 52.566316
" clip-path="url(#pb3bf763499)" style="fill: none; stroke: #cccccc; stroke-linecap: round"/>
     </g>
     <g id="text_12">
      <!-- 80 -->
      <g style="fill: #262626" transform="translate(36.8025 56.745456) scale(0.11 -0.11)">
       <defs>
        <path id="DejaVuSans-38" d="M 2034 2216
Q 1584 2216 1326 1975
Q 1069 1734 1069 1313
Q 1069 891 1326 650
Q 1584 409 2034 409
Q 2484 409 2743 651
Q 3003 894 3003 1313
Q 3003 1734 2745 1975
Q 2488 2216 2034 2216
z
M 1403 2484
Q 997 2584 770 2862
Q 544 3141 544 3541
Q 544 4100 942 4425
Q 1341 4750 2034 4750
Q 2731 4750 3128 4425
Q 3525 4100 3525 3541
Q 3525 3141 3298 2862
Q 3072 2584 2669 2484
Q 3125 2378 3379 2068
Q 3634 1759 3634 1313
Q 3634 634 3220 271
Q 2806 -91 2034 -91
Q 1263 -91 848 271
Q 434 634 434 1313
Q 434 1759 690 2068
Q 947 2378 1403 2484
z
M 1172 3481
Q 1172 3119 1398 2916
Q 1625 2713 2034 2713
Q 2441 2713 2670 2916
Q 2900 3119 2900 3481
Q 2900 3844 2670 4047
Q 2441 4250 2034 4250
Q 1625 4250 1398 4047
Q 1172 3844 1172 3481
z
" transform="scale(0.015625)"/>
       </defs>
       <use xlink:href="#DejaVuSans-38"/>
       <use xlink:href="#DejaVuSans-30" transform="translate(63.623047 0)"/>
      </g>
     </g>
    </g>
    <g id="text_13">
     <!-- Voltage (V) -->
     <g style="fill: #262626" transform="translate(30.306875 171.290625) rotate(-90) scale(0.12 -0.12)">
      <defs>
       <path id="DejaVuSans-56" d="M 1831 0
L 50 4666
L 709 4666
L 2188 738
L 3669 4666
L 4325 4666
L 2547 0
L 1831 0
z
" transform="scale(0.015625)"/>
       <path id="DejaVuSans-6f" d="M 1959 3097
Q 1497 3097 1228 2736
Q 959 2375 959 1747
Q 959 1119 1226 758
Q 1494 397 1959 397
Q 2419 397 2687 759
Q 2956 1122 2956 1747
Q 2956 2369 2687 2733
Q 2419 3097 1959 3097
z
M 1959 3584
Q 2709 3584 3137 3096
Q 3566 2609 3566 1747
Q 3566 888 3137 398
Q 2709 -91 1959 -91
Q 1206 -91 779 398
Q 353 888 353 1747
Q 353 2609 779 3096
Q 1206 3584 1959 3584
z
" transform="scale(0.015625)"/>
       <path id="DejaVuSans-6c" d="M 603 4863
L 1178 4863
L 1178 0
L 603 0
L 603 4863
z
" transform="scale(0.015625)"/>
       <path id="DejaVuSans-74" d="M 1172 4494
L 1172 3500
L 2356 3500
L 2356 3053
L 1172 3053
L 1172 1153
Q 1172 725 1289 603
Q 1406 481 1766 481
L 2356 481
L 2356 0
L 1766 0
Q 1100 0 847 248
Q 594 497 594 1153
L 594 3053
L 172 3053
L 172 3500
L 594 3500
L 594 4494
L 1172 4494
z
" transform="scale(0.015625)"/>
       <path id="DejaVuSans-61" d="M 2194 1759
Q 1497 1759 1228 1600
Q 959 1441 959 1056
Q 959 750 1161 570
Q 1363 391 1709 391
Q 2188 391 2477 730
Q 2766 1069 2766 1631
L 2766 1759
L 2194 1759
z
M 3341 1997
L 3341 0
L 2766 0
L 2766 531
Q 2569 213 2275 61
Q 1981 -91 1556 -91
Q 1019 -91 701 211
Q 384 513 384 1019
Q 384 1609 779 1909
Q 1175 2209 1959 2209
L 2766 2209
L 2766 2266
Q 2766 2663 2505 2880
Q 2244 3097 1772 3097
Q 1472 3097 1187 3025
Q 903 2953 641 2809
L 641 3341
Q 956 3463 1253 3523
Q 1550 3584 1831 3584
Q 2591 3584 2966 3190
Q 3341 2797 3341 1997
z
" transform="scale(0.015625)"/>
       <path id="DejaVuSans-67" d="M 2906 1791
Q 2906 2416 2648 2759
Q 2391 3103 1925 3103
Q 1463 3103 1205 2759
Q 947 2416 947 1791
Q 947 1169 1205 825
Q 1463 481 1925 481
Q 2391 481 2648 825
Q 2906 1169 2906 1791
z
M 3481 434
Q 3481 -459 3084 -895
Q 2688 -1331 1869 -1331
Q 1566 -1331 1297 -1286
Q 1028 -1241 775 -1147
L 775 -588
Q 1028 -725 1275 -790
Q 1522 -856 1778 -856
Q 2344 -856 2625 -561
Q 2906 -266 2906 331
L 2906 616
Q 2728 306 2450 153
Q 2172 0 1784 0
Q 1141 0 747 490
Q 353 981 353 1791
Q 353 2603 747 3093
Q 1141 3584 1784 3584
Q 2172 3584 2450 3431
Q 2728 3278 2906 2969
L 2906 3500
L 3481 3500
L 3481 434
z
" transform="scale(0.015625)"/>
      </defs>
      <use xlink:href="#DejaVuSans-56"/>
      <use xlink:href="#DejaVuSans-6f" transform="translate(60.658203 0)"/>
      <use xlink:href="#DejaVuSans-6c" transform="translate(121.839844 0)"/>
      <use xlink:href="#DejaVuSans-74" transform="translate(149.623047 0)"/>
      <use xlink:href="#DejaVuSans-61" transform="translate(188.832031 0)"/>
      <use xlink:href="#DejaVuSans-67" transform="translate(250.111328 0)"/>
      <use xlink:href="#DejaVuSans-65" transform="translate(313.587891 0)"/>
      <use xlink:href="#DejaVuSans-20" transform="translate(375.111328 0)"/>
      <use xlink:href="#DejaVuSans-28" transform="translate(406.898438 0)"/>
      <use xlink:href="#DejaVuSans-56" transform="translate(445.912109 0)"/>
      <use xlink:href="#DejaVuSans-29" transform="translate(514.320312 0)"/>
     </g>
    </g>
   </g>
   <g id="line2d_12">
    <path d="M 106.060909 235.016842
L 124.374429 52.566316
L 215.484193 52.566316
L 215.942031 53.113941
L 234.255552 235.016842
L 471.873479 235.016842
L 472.331317 233.191424
L 490.186999 55.213172
L 490.644837 52.566316
L 581.754601 52.566316
L 582.212439 54.939359
L 600.068122 232.917611
L 600.52596 235.016842
L 838.143887 235.016842
L 838.601725 231.366006
L 856.457407 53.387754
L 856.915245 52.566316
L 948.025009 52.566316
L 949.398523 65.891867
L 966.33853 234.743029
L 966.796368 235.016842
L 1021.279091 235.016842
L 1021.279091 235.016842
" clip-path="url(#pb3bf763499)" style="fill: none; stroke: #4c72b0; stroke-opacity: 0.8; stroke-width: 2; stroke-linecap: round"/>
   </g>
   <g id="line2d_13">
    <path d="M 106.060909 235.016842
L 197.170673 235.016842
L 197.628511 234.560488
L 215.942031 52.566316
L 307.051795 52.566316
L 307.509633 53.570296
L 325.823154 235.016842
L 563.441081 235.016842
L 563.898919 232.73507
L 581.754601 54.756817
L 582.212439 52.566316
L 673.322203 52.566316
L 673.780041 55.395714
L 691.635724 233.373966
L 692.093562 235.016842
L 929.711489 235.016842
L 931.085003 221.782562
L 948.025009 52.931399
L 948.482847 52.566316
L 1021.279091 52.566316
L 1021.279091 52.566316
" clip-path="url(#pb3bf763499)" style="fill: none; stroke: #dd8452; stroke-opacity: 0.8; stroke-width: 2; stroke-linecap: round"/>
   </g>
   <g id="line2d_14">
    <path d="M 106.060909 235.016842
L 288.738275 235.016842
L 289.196113 234.104133
L 307.509633 52.566316
L 398.619397 52.566316
L 399.077235 54.02665
L 416.932918 232.004902
L 417.390756 235.016842
L 655.008683 235.016842
L 655.466521 232.278715
L 673.322203 54.300463
L 673.780041 52.566316
L 764.889805 52.566316
L 765.347643 55.852068
L 783.203326 233.83032
L 783.661164 235.016842
L 1021.279091 235.016842
L 1021.279091 235.016842
" clip-path="url(#pb3bf763499)" style="fill: none; stroke: #55a868; stroke-opacity: 0.8; stroke-width: 2; stroke-linecap: round"/>
   </g>
   <g id="line2d_15">
    <path d="M 106.060909 52.566316
L 124.374429 52.657587
L 142.68795 235.016842
L 380.305877 235.016842
L 380.763715 233.647779
L 398.619397 55.669526
L 399.077235 52.566316
L 490.186999 52.566316
L 490.644837 54.483005
L 508.50052 232.461257
L 508.958358 235.016842
L 746.576285 235.016842
L 747.034123 231.822361
L 764.889805 53.844108
L 765.347643 52.566316
L 856.457407 52.566316
L 857.373083 60.871968
L 874.770928 234.286675
L 875.228766 235.016842
L 1021.279091 235.016842
L 1021.279091 235.016842
" clip-path="url(#pb3bf763499)" style="fill: none; stroke: #c44e52; stroke-opacity: 0.8; stroke-width: 2; stroke-linecap: round"/>
   </g>
   <g id="patch_3">
    <path d="M 60.3 246.42
L 60.3 29.76
" style="fill: none; stroke: #cccccc; stroke-width: 1.25; stroke-linejoin: miter; stroke-linecap: square"/>
   </g>
   <g id="patch_4">
    <path d="M 1067.04 246.42
L 1067.04 29.76
" style="fill: none; stroke: #cccccc; stroke-width: 1.25; stroke-linejoin: miter; stroke-linecap: square"/>
   </g>
   <g id="patch_5">
    <path d="M 60.3 246.42
L 1067.04 246.42
" style="fill: none; stroke: #cccccc; stroke-width: 1.25; stroke-linejoin: miter; stroke-linecap: square"/>
   </g>
   <g id="patch_6">
    <path d="M 60.3 29.76
L 1067.04 29.76
" style="fill: none; stroke: #cccccc; stroke-width: 1.25; stroke-linejoin: miter; stroke-linecap: square"/>
   </g>
   <g id="text_14">
    <!-- Time-domain Voltage Waveform (4-Phase Trapezoidal, f=1kHz, overlap=10%) -->
    <g style="fill: #262626" transform="translate(291.636875 23.76) scale(0.14 -0.14)">
     <defs>
      <path id="DejaVuSans-2d" d="M 313 2009
L 1997 2009
L 1997 1497
L 313 1497
L 313 2009
z
" transform="scale(0.015625)"/>
      <path id="DejaVuSans-64" d="M 2906 2969
L 2906 4863
L 3481 4863
L 3481 0
L 2906 0
L 2906 525
Q 2725 213 2448 61
Q 2172 -91 1784 -91
Q 1150 -91 751 415
Q 353 922 353 1747
Q 353 2572 751 3078
Q 1150 3584 1784 3584
Q 2172 3584 2448 3432
Q 2725 3281 2906 2969
z
M 947 1747
Q 947 1113 1208 752
Q 1469 391 1925 391
Q 2381 391 2643 752
Q 2906 1113 2906 1747
Q 2906 2381 2643 2742
Q 2381 3103 1925 3103
Q 1469 3103 1208 2742
Q 947 2381 947 1747
z
" transform="scale(0.015625)"/>
      <path id="DejaVuSans-6e" d="M 3513 2113
L 3513 0
L 2938 0
L 2938 2094
Q 2938 2591 2744 2837
Q 2550 3084 2163 3084
Q 1697 3084 1428 2787
Q 1159 2491 1159 1978
L 1159 0
L 581 0
L 581 3500
L 1159 3500
L 1159 2956
Q 1366 3272 1645 3428
Q 1925 3584 2291 3584
Q 2894 3584 3203 3211
Q 3513 2838 3513 2113
z
" transform="scale(0.015625)"/>
      <path id="DejaVuSans-57" d="M 213 4666
L 850 4666
L 1831 722
L 2809 4666
L 3519 4666
L 4500 722
L 5478 4666
L 6119 4666
L 4947 0
L 4153 0
L 3169 4050
L 2175 0
L 1381 0
L 213 4666
z
" transform="scale(0.015625)"/>
      <path id="DejaVuSans-76" d="M 191 3500
L 800 3500
L 1894 563
L 2988 3500
L 3597 3500
L 2284 0
L 1503 0
L 191 3500
z
" transform="scale(0.015625)"/>
      <path id="DejaVuSans-66" d="M 2375 4863
L 2375 4384
L 1825 4384
Q 1516 4384 1395 4259
Q 1275 4134 1275 3809
L 1275 3500
L 2222 3500
L 2222 3053
L 1275 3053
L 1275 0
L 697 0
L 697 3053
L 147 3053
L 147 3500
L 697 3500
L 697 3744
Q 697 4328 969 4595
Q 1241 4863 1831 4863
L 2375 4863
z
" transform="scale(0.015625)"/>
      <path id="DejaVuSans-72" d="M 2631 2963
Q 2534 3019 2420 3045
Q 2306 3072 2169 3072
Q 1681 3072 1420 2755
Q 1159 2438 1159 1844
L 1159 0
L 581 0
L 581 3500
L 1159 3500
L 1159 2956
Q 1341 3275 1631 3429
Q 1922 3584 2338 3584
Q 2397 3584 2469 3576
Q 2541 3569 2628 3553
L 2631 2963
z
" transform="scale(0.015625)"/>
      <path id="DejaVuSans-50" d="M 1259 4147
L 1259 2394
L 2053 2394
Q 2494 2394 2734 2622
Q 2975 2850 2975 3272
Q 2975 3691 2734 3919
Q 2494 4147 2053 4147
L 1259 4147
z
M 628 4666
L 2053 4666
Q 2838 4666 3239 4311
Q 3641 3956 3641 3272
Q 3641 2581 3239 2228
Q 2838 1875 2053 1875
L 1259 1875
L 1259 0
L 628 0
L 628 4666
z
" transform="scale(0.015625)"/>
      <path id="DejaVuSans-68" d="M 3513 2113
L 3513 0
L 2938 0
L 2938 2094
Q 2938 2591 2744 2837
Q 2550 3084 2163 3084
Q 1697 3084 1428 2787
Q 1159 2491 1159 1978
L 1159 0
L 581 0
L 581 4863
L 1159 4863
L 1159 2956
Q 1366 3272 1645 3428
Q 1925 3584 2291 3584
Q 2894 3584 3203 3211
Q 3513 2838 3513 2113
z
" transform="scale(0.015625)"/>
      <path id="DejaVuSans-70" d="M 1159 525
L 1159 -1331
L 581 -1331
L 581 3500
L 1159 3500
L 1159 2969
Q 1341 3281 1617 3432
Q 1894 3584 2278 3584
Q 2916 3584 3314 3078
Q 3713 2572 3713 1747
Q 3713 922 3314 415
Q 2916 -91 2278 -91
Q 1894 -91 1617 61
Q 1341 213 1159 525
z
M 3116 1747
Q 3116 2381 2855 2742
Q 2594 3103 2138 3103
Q 1681 3103 1420 2742
Q 1159 2381 1159 1747
Q 1159 1113 1420 752
Q 1681 391 2138 391
Q 2594 391 2855 752
Q 3116 1113 3116 1747
z
" transform="scale(0.015625)"/>
      <path id="DejaVuSans-7a" d="M 353 3500
L 3084 3500
L 3084 2975
L 922 459
L 3084 459
L 3084 0
L 275 0
L 275 525
L 2438 3041
L 353 3041
L 353 3500
z
" transform="scale(0.015625)"/>
      <path id="DejaVuSans-2c" d="M 750 794
L 1409 794
L 1409 256
L 897 -744
L 494 -744
L 750 256
L 750 794
z
" transform="scale(0.015625)"/>
      <path id="DejaVuSans-3d" d="M 678 2906
L 4684 2906
L 4684 2381
L 678 2381
L 678 2906
z
M 678 1631
L 4684 1631
L 4684 1100
L 678 1100
L 678 1631
z
" transform="scale(0.015625)"/>
      <path id="DejaVuSans-6b" d="M 581 4863
L 1159 4863
L 1159 1991
L 2875 3500
L 3609 3500
L 1753 1863
L 3688 0
L 2938 0
L 1159 1709
L 1159 0
L 581 0
L 581 4863
z
" transform="scale(0.015625)"/>
      <path id="DejaVuSans-48" d="M 628 4666
L 1259 4666
L 1259 2753
L 3553 2753
L 3553 4666
L 4184 4666
L 4184 0
L 3553 0
L 3553 2222
L 1259 2222
L 1259 0
L 628 0
L 628 4666
z
" transform="scale(0.015625)"/>
      <path id="DejaVuSans-25" d="M 4653 2053
Q 4381 2053 4226 1822
Q 4072 1591 4072 1178
Q 4072 772 4226 539
Q 4381 306 4653 306
Q 4919 306 5073 539
Q 5228 772 5228 1178
Q 5228 1588 5073 1820
Q 4919 2053 4653 2053
z
M 4653 2450
Q 5147 2450 5437 2106
Q 5728 1763 5728 1178
Q 5728 594 5436 251
Q 5144 -91 4653 -91
Q 4153 -91 3862 251
Q 3572 594 3572 1178
Q 3572 1766 3864 2108
Q 4156 2450 4653 2450
z
M 1428 4353
Q 1159 4353 1004 4120
Q 850 3888 850 3481
Q 850 3069 1003 2837
Q 1156 2606 1428 2606
Q 1700 2606 1854 2837
Q 2009 3069 2009 3481
Q 2009 3884 1853 4118
Q 1697 4353 1428 4353
z
M 4250 4750
L 4750 4750
L 1831 -91
L 1331 -91
L 4250 4750
z
M 1428 4750
Q 1922 4750 2215 4408
Q 2509 4066 2509 3481
Q 2509 2891 2217 2550
Q 1925 2209 1428 2209
Q 931 2209 642 2551
Q 353 2894 353 3481
Q 353 4063 643 4406
Q 934 4750 1428 4750
z
" transform="scale(0.015625)"/>
     </defs>
     <use xlink:href="#DejaVuSans-54"/>
     <use xlink:href="#DejaVuSans-69" transform="translate(57.958984 0)"/>
     <use xlink:href="#DejaVuSans-6d" transform="translate(85.742188 0)"/>
     <use xlink:href="#DejaVuSans-65" transform="translate(183.154297 0)"/>
     <use xlink:href="#DejaVuSans-2d" transform="translate(244.677734 0)"/>
     <use xlink:href="#DejaVuSans-64" transform="translate(280.761719 0)"/>
     <use xlink:href="#DejaVuSans-6f" transform="translate(344.238281 0)"/>
     <use xlink:href="#DejaVuSans-6d" transform="translate(405.419922 0)"/>
     <use xlink:href="#DejaVuSans-61" transform="translate(502.832031 0)"/>
     <use xlink:href="#DejaVuSans-69" transform="translate(564.111328 0)"/>
     <use xlink:href="#DejaVuSans-6e" transform="translate(591.894531 0)"/>
     <use xlink:href="#DejaVuSans-20" transform="translate(655.273438 0)"/>
     <use xlink:href="#DejaVuSans-56" transform="translate(687.060547 0)"/>
     <use xlink:href="#DejaVuSans-6f" transform="translate(747.71875 0)"/>
     <use xlink:href="#DejaVuSans-6c" transform="translate(808.900391 0)"/>
     <use xlink:href="#DejaVuSans-74" transform="translate(836.683594 0)"/>
     <use xlink:href="#DejaVuSans-61" transform="translate(875.892578 0)"/>
     <use xlink:href="#DejaVuSans-67" transform="translate(937.171875 0)"/>
     <use xlink:href="#DejaVuSans-65" transform="translate(1000.648438 0)"/>
     <use xlink:href="#DejaVuSans-20" transform="translate(1062.171875 0)"/>
     <use xlink:href="#DejaVuSans-57" transform="translate(1093.958984 0)"/>
     <use xlink:href="#DejaVuSans-61" transform="translate(1186.460938 0)"/>
     <use xlink:href="#DejaVuSans-76" transform="translate(1247.740234 0)"/>
     <use xlink:href="#DejaVuSans-65" transform="translate(1306.919922 0)"/>
     <use xlink:href="#DejaVuSans-66" transform="translate(1368.443359 0)"/>
     <use xlink:href="#DejaVuSans-6f" transform="translate(1403.648438 0)"/>
     <use xlink:href="#DejaVuSans-72" transform="translate(1464.830078 0)"/>
     <use xlink:href="#DejaVuSans-6d" transform="translate(1504.193359 0)"/>
     <use xlink:href="#DejaVuSans-20" transform="translate(1601.605469 0)"/>
     <use xlink:href="#DejaVuSans-28" transform="translate(1633.392578 0)"/>
     <use xlink:href="#DejaVuSans-34" transform="translate(1672.40625 0)"/>
     <use xlink:href="#DejaVuSans-2d" transform="translate(1736.029297 0)"/>
     <use xlink:href="#DejaVuSans-50" transform="translate(1772.113281 0)"/>
     <use xlink:href="#DejaVuSans-68" transform="translate(1832.416016 0)"/>
     <use xlink:href="#DejaVuSans-61" transform="translate(1895.794922 0)"/>
     <use xlink:href="#DejaVuSans-73" transform="translate(1957.074219 0)"/>
     <use xlink:href="#DejaVuSans-65" transform="translate(2009.173828 0)"/>
     <use xlink:href="#DejaVuSans-20" transform="translate(2070.697266 0)"/>
     <use xlink:href="#DejaVuSans-54" transform="translate(2102.484375 0)"/>
     <use xlink:href="#DejaVuSans-72" transform="translate(2148.818359 0)"/>
     <use xlink:href="#DejaVuSans-61" transform="translate(2189.931641 0)"/>
     <use xlink:href="#DejaVuSans-70" transform="translate(2251.210938 0)"/>
     <use xlink:href="#DejaVuSans-65" transform="translate(2314.6875 0)"/>
     <use xlink:href="#DejaVuSans-7a" transform="translate(2376.210938 0)"/>
     <use xlink:href="#DejaVuSans-6f" transform="translate(2428.701172 0)"/>
     <use xlink:href="#DejaVuSans-69" transform="translate(2489.882812 0)"/>
     <use xlink:href="#DejaVuSans-64" transform="translate(2517.666016 0)"/>
     <use xlink:href="#DejaVuSans-61" transform="translate(2581.142578 0)"/>
     <use xlink:href="#DejaVuSans-6c" transform="translate(2642.421875 0)"/>
     <use xlink:href="#DejaVuSans-2c" transform="translate(2670.205078 0)"/>
     <use xlink:href="#DejaVuSans-20" transform="translate(2701.992188 0)"/>
     <use xlink:href="#DejaVuSans-66" transform="translate(2733.779297 0)"/>
     <use xlink:href="#DejaVuSans-3d" transform="translate(2768.984375 0)"/>
     <use xlink:href="#DejaVuSans-31" transform="translate(2852.773438 0)"/>
     <use xlink:href="#DejaVuSans-6b" transform="translate(2916.396484 0)"/>
     <use xlink:href="#DejaVuSans-48" transform="translate(2974.306641 0)"/>
     <use xlink:href="#DejaVuSans-7a" transform="translate(3049.501953 0)"/>
     <use xlink:href="#DejaVuSans-2c" transform="translate(3101.992188 0)"/>
     <use xlink:href="#DejaVuSans-20" transform="translate(3133.779297 0)"/>
     <use xlink:href="#DejaVuSans-6f" transform="translate(3165.566406 0)"/>
     <use xlink:href="#DejaVuSans-76" transform="translate(3226.748047 0)"/>
     <use xlink:href="#DejaVuSans-65" transform="translate(3285.927734 0)"/>
     <use xlink:href="#DejaVuSans-72" transform="translate(3347.451172 0)"/>
     <use xlink:href="#DejaVuSans-6c" transform="translate(3388.564453 0)"/>
     <use xlink:href="#DejaVuSans-61" transform="translate(3416.347656 0)"/>
     <use xlink:href="#DejaVuSans-70" transform="translate(3477.626953 0)"/>
     <use xlink:href="#DejaVuSans-3d" transform="translate(3541.103516 0)"/>
     <use xlink:href="#DejaVuSans-31" transform="translate(3624.892578 0)"/>
     <use xlink:href="#DejaVuSans-30" transform="translate(3688.515625 0)"/>
     <use xlink:href="#DejaVuSans-25" transform="translate(3752.138672 0)"/>
     <use xlink:href="#DejaVuSans-29" transform="translate(3847.158203 0)"/>
    </g>
   </g>
   <g id="legend_1">
    <g id="patch_7">
     <path d="M 909.133281 103.14375
L 1059.34 103.14375
Q 1061.54 103.14375 1061.54 100.94375
L 1061.54 37.46
Q 1061.54 35.26 1059.34 35.26
L 909.133281 35.26
Q 906.933281 35.26 906.933281 37.46
L 906.933281 100.94375
Q 906.933281 103.14375 909.133281 103.14375
z
" style="fill: #ffffff; opacity: 0.8; stroke: #cccccc; stroke-linejoin: miter"/>
    </g>
    <g id="line2d_16">
     <path d="M 911.333281 44.168281
L 922.333281 44.168281
L 933.333281 44.168281
" style="fill: none; stroke: #4c72b0; stroke-opacity: 0.8; stroke-width: 2; stroke-linecap: round"/>
    </g>
    <g id="text_15">
     <!-- Phase 1 (Clamp-L) -->
     <g style="fill: #262626" transform="translate(942.133281 48.018281) scale(0.11 -0.11)">
      <defs>
       <path id="DejaVuSans-43" d="M 4122 4306
L 4122 3641
Q 3803 3938 3442 4084
Q 3081 4231 2675 4231
Q 1875 4231 1450 3742
Q 1025 3253 1025 2328
Q 1025 1406 1450 917
Q 1875 428 2675 428
Q 3081 428 3442 575
Q 3803 722 4122 1019
L 4122 359
Q 3791 134 3420 21
Q 3050 -91 2638 -91
Q 1578 -91 968 557
Q 359 1206 359 2328
Q 359 3453 968 4101
Q 1578 4750 2638 4750
Q 3056 4750 3426 4639
Q 3797 4528 4122 4306
z
" transform="scale(0.015625)"/>
       <path id="DejaVuSans-4c" d="M 628 4666
L 1259 4666
L 1259 531
L 3531 531
L 3531 0
L 628 0
L 628 4666
z
" transform="scale(0.015625)"/>
      </defs>
      <use xlink:href="#DejaVuSans-50"/>
      <use xlink:href="#DejaVuSans-68" transform="translate(60.302734 0)"/>
      <use xlink:href="#DejaVuSans-61" transform="translate(123.681641 0)"/>
      <use xlink:href="#DejaVuSans-73" transform="translate(184.960938 0)"/>
      <use xlink:href="#DejaVuSans-65" transform="translate(237.060547 0)"/>
      <use xlink:href="#DejaVuSans-20" transform="translate(298.583984 0)"/>
      <use xlink:href="#DejaVuSans-31" transform="translate(330.371094 0)"/>
      <use xlink:href="#DejaVuSans-20" transform="translate(393.994141 0)"/>
      <use xlink:href="#DejaVuSans-28" transform="translate(425.78125 0)"/>
      <use xlink:href="#DejaVuSans-43" transform="translate(464.794922 0)"/>
      <use xlink:href="#DejaVuSans-6c" transform="translate(534.619141 0)"/>
      <use xlink:href="#DejaVuSans-61" transform="translate(562.402344 0)"/>
      <use xlink:href="#DejaVuSans-6d" transform="translate(623.681641 0)"/>
      <use xlink:href="#DejaVuSans-70" transform="translate(721.09375 0)"/>
      <use xlink:href="#DejaVuSans-2d" transform="translate(784.570312 0)"/>
      <use xlink:href="#DejaVuSans-4c" transform="translate(820.654297 0)"/>
      <use xlink:href="#DejaVuSans-29" transform="translate(876.367188 0)"/>
     </g>
    </g>
    <g id="line2d_17">
     <path d="M 911.333281 60.314219
L 922.333281 60.314219
L 933.333281 60.314219
" style="fill: none; stroke: #dd8452; stroke-opacity: 0.8; stroke-width: 2; stroke-linecap: round"/>
    </g>
    <g id="text_16">
     <!-- Phase 2 (Drive L-&gt;R) -->
     <g style="fill: #262626" transform="translate(942.133281 64.164219) scale(0.11 -0.11)">
      <defs>
       <path id="DejaVuSans-44" d="M 1259 4147
L 1259 519
L 2022 519
Q 2988 519 3436 956
Q 3884 1394 3884 2338
Q 3884 3275 3436 3711
Q 2988 4147 2022 4147
L 1259 4147
z
M 628 4666
L 1925 4666
Q 3281 4666 3915 4102
Q 4550 3538 4550 2338
Q 4550 1131 3912 565
Q 3275 0 1925 0
L 628 0
L 628 4666
z
" transform="scale(0.015625)"/>
       <path id="DejaVuSans-3e" d="M 678 3150
L 678 3719
L 4684 2266
L 4684 1747
L 678 294
L 678 863
L 3897 2003
L 678 3150
z
" transform="scale(0.015625)"/>
       <path id="DejaVuSans-52" d="M 2841 2188
Q 3044 2119 3236 1894
Q 3428 1669 3622 1275
L 4263 0
L 3584 0
L 2988 1197
Q 2756 1666 2539 1819
Q 2322 1972 1947 1972
L 1259 1972
L 1259 0
L 628 0
L 628 4666
L 2053 4666
Q 2853 4666 3247 4331
Q 3641 3997 3641 3322
Q 3641 2881 3436 2590
Q 3231 2300 2841 2188
z
M 1259 4147
L 1259 2491
L 2053 2491
Q 2509 2491 2742 2702
Q 2975 2913 2975 3322
Q 2975 3731 2742 3939
Q 2509 4147 2053 4147
L 1259 4147
z
" transform="scale(0.015625)"/>
      </defs>
      <use xlink:href="#DejaVuSans-50"/>
      <use xlink:href="#DejaVuSans-68" transform="translate(60.302734 0)"/>
      <use xlink:href="#DejaVuSans-61" transform="translate(123.681641 0)"/>
      <use xlink:href="#DejaVuSans-73" transform="translate(184.960938 0)"/>
      <use xlink:href="#DejaVuSans-65" transform="translate(237.060547 0)"/>
      <use xlink:href="#DejaVuSans-20" transform="translate(298.583984 0)"/>
      <use xlink:href="#DejaVuSans-32" transform="translate(330.371094 0)"/>
      <use xlink:href="#DejaVuSans-20" transform="translate(393.994141 0)"/>
      <use xlink:href="#DejaVuSans-28" transform="translate(425.78125 0)"/>
      <use xlink:href="#DejaVuSans-44" transform="translate(464.794922 0)"/>
      <use xlink:href="#DejaVuSans-72" transform="translate(541.796875 0)"/>
      <use xlink:href="#DejaVuSans-69" transform="translate(582.910156 0)"/>
      <use xlink:href="#DejaVuSans-76" transform="translate(610.693359 0)"/>
      <use xlink:href="#DejaVuSans-65" transform="translate(669.873047 0)"/>
      <use xlink:href="#DejaVuSans-20" transform="translate(731.396484 0)"/>
      <use xlink:href="#DejaVuSans-4c" transform="translate(763.183594 0)"/>
      <use xlink:href="#DejaVuSans-2d" transform="translate(817.146484 0)"/>
      <use xlink:href="#DejaVuSans-3e" transform="translate(853.230469 0)"/>
      <use xlink:href="#DejaVuSans-52" transform="translate(937.019531 0)"/>
      <use xlink:href="#DejaVuSans-29" transform="translate(1006.501953 0)"/>
     </g>
    </g>
    <g id="line2d_18">
     <path d="M 911.333281 76.460156
L 922.333281 76.460156
L 933.333281 76.460156
" style="fill: none; stroke: #55a868; stroke-opacity: 0.8; stroke-width: 2; stroke-linecap: round"/>
    </g>
    <g id="text_17">
     <!-- Phase 3 (Clamp-R) -->
     <g style="fill: #262626" transform="translate(942.133281 80.310156) scale(0.11 -0.11)">
      <defs>
       <path id="DejaVuSans-33" d="M 2597 2516
Q 3050 2419 3304 2112
Q 3559 1806 3559 1356
Q 3559 666 3084 287
Q 2609 -91 1734 -91
Q 1441 -91 1130 -33
Q 819 25 488 141
L 488 750
Q 750 597 1062 519
Q 1375 441 1716 441
Q 2309 441 2620 675
Q 2931 909 2931 1356
Q 2931 1769 2642 2001
Q 2353 2234 1838 2234
L 1294 2234
L 1294 2753
L 1863 2753
Q 2328 2753 2575 2939
Q 2822 3125 2822 3475
Q 2822 3834 2567 4026
Q 2313 4219 1838 4219
Q 1578 4219 1281 4162
Q 984 4106 628 3988
L 628 4550
Q 988 4650 1302 4700
Q 1616 4750 1894 4750
Q 2613 4750 3031 4423
Q 3450 4097 3450 3541
Q 3450 3153 3228 2886
Q 3006 2619 2597 2516
z
" transform="scale(0.015625)"/>
      </defs>
      <use xlink:href="#DejaVuSans-50"/>
      <use xlink:href="#DejaVuSans-68" transform="translate(60.302734 0)"/>
      <use xlink:href="#DejaVuSans-61" transform="translate(123.681641 0)"/>
      <use xlink:href="#DejaVuSans-73" transform="translate(184.960938 0)"/>
      <use xlink:href="#DejaVuSans-65" transform="translate(237.060547 0)"/>
      <use xlink:href="#DejaVuSans-20" transform="translate(298.583984 0)"/>
      <use xlink:href="#DejaVuSans-33" transform="translate(330.371094 0)"/>
      <use xlink:href="#DejaVuSans-20" transform="translate(393.994141 0)"/>
      <use xlink:href="#DejaVuSans-28" transform="translate(425.78125 0)"/>
      <use xlink:href="#DejaVuSans-43" transform="translate(464.794922 0)"/>
      <use xlink:href="#DejaVuSans-6c" transform="translate(534.619141 0)"/>
      <use xlink:href="#DejaVuSans-61" transform="translate(562.402344 0)"/>
      <use xlink:href="#DejaVuSans-6d" transform="translate(623.681641 0)"/>
      <use xlink:href="#DejaVuSans-70" transform="translate(721.09375 0)"/>
      <use xlink:href="#DejaVuSans-2d" transform="translate(784.570312 0)"/>
      <use xlink:href="#DejaVuSans-52" transform="translate(820.654297 0)"/>
      <use xlink:href="#DejaVuSans-29" transform="translate(890.136719 0)"/>
     </g>
    </g>
    <g id="line2d_19">
     <path d="M 911.333281 92.606094
L 922.333281 92.606094
L 933.333281 92.606094
" style="fill: none; stroke: #c44e52; stroke-opacity: 0.8; stroke-width: 2; stroke-linecap: round"/>
    </g>
    <g id="text_18">
     <!-- Phase 4 (Drive R-&gt;L) -->
     <g style="fill: #262626" transform="translate(942.133281 96.456094) scale(0.11 -0.11)">
      <use xlink:href="#DejaVuSans-50"/>
      <use xlink:href="#DejaVuSans-68" transform="translate(60.302734 0)"/>
      <use xlink:href="#DejaVuSans-61" transform="translate(123.681641 0)"/>
      <use xlink:href="#DejaVuSans-73" transform="translate(184.960938 0)"/>
      <use xlink:href="#DejaVuSans-65" transform="translate(237.060547 0)"/>
      <use xlink:href="#DejaVuSans-20" transform="translate(298.583984 0)"/>
      <use xlink:href="#DejaVuSans-34" transform="translate(330.371094 0)"/>
      <use xlink:href="#DejaVuSans-20" transform="translate(393.994141 0)"/>
      <use xlink:href="#DejaVuSans-28" transform="translate(425.78125 0)"/>
      <use xlink:href="#DejaVuSans-44" transform="translate(464.794922 0)"/>
      <use xlink:href="#DejaVuSans-72" transform="translate(541.796875 0)"/>
      <use xlink:href="#DejaVuSans-69" transform="translate(582.910156 0)"/>
      <use xlink:href="#DejaVuSans-76" transform="translate(610.693359 0)"/>
      <use xlink:href="#DejaVuSans-65" transform="translate(669.873047 0)"/>
      <use xlink:href="#DejaVuSans-20" transform="translate(731.396484 0)"/>
      <use xlink:href="#DejaVuSans-52" transform="translate(763.183594 0)"/>
      <use xlink:href="#DejaVuSans-2d" transform="translate(828.666016 0)"/>
      <use xlink:href="#DejaVuSans-3e" transform="translate(864.75 0)"/>
      <use xlink:href="#DejaVuSans-4c" transform="translate(948.539062 0)"/>
      <use xlink:href="#DejaVuSans-29" transform="translate(1004.251953 0)"/>
     </g>
    </g>
   </g>
  </g>
  <g id="axes_2">
   <g id="patch_8">
    <path d="M 60.3 530.1
L 1067.04 530.1
L 1067.04 313.44
L 60.3 313.44
z
" style="fill: #ffffff"/>
   </g>
   <g id="matplotlib.axis_3">
    <g id="xtick_7">
     <g id="line2d_20">
      <path d="M 96.816281 530.1
L 96.816281 313.44
" clip-path="url(#p4f2d0c32ea)" style="fill: none; stroke: #cccccc; stroke-linecap: round"/>
     </g>
     <g id="text_19">
      <!-- 0 -->
      <g style="fill: #262626" transform="translate(93.316906 547.958281) scale(0.11 -0.11)">
       <use xlink:href="#DejaVuSans-30"/>
      </g>
     </g>
    </g>
    <g id="xtick_8">
     <g id="line2d_21">
      <path d="M 281.708843 530.1
L 281.708843 313.44
" clip-path="url(#p4f2d0c32ea)" style="fill: none; stroke: #cccccc; stroke-linecap: round"/>
     </g>
     <g id="text_20">
      <!-- 2000 -->
      <g style="fill: #262626" transform="translate(267.711343 547.958281) scale(0.11 -0.11)">
       <use xlink:href="#DejaVuSans-32"/>
       <use xlink:href="#DejaVuSans-30" transform="translate(63.623047 0)"/>
       <use xlink:href="#DejaVuSans-30" transform="translate(127.246094 0)"/>
       <use xlink:href="#DejaVuSans-30" transform="translate(190.869141 0)"/>
      </g>
     </g>
    </g>
    <g id="xtick_9">
     <g id="line2d_22">
      <path d="M 466.601405 530.1
L 466.601405 313.44
" clip-path="url(#p4f2d0c32ea)" style="fill: none; stroke: #cccccc; stroke-linecap: round"/>
     </g>
     <g id="text_21">
      <!-- 4000 -->
      <g style="fill: #262626" transform="translate(452.603905 547.958281) scale(0.11 -0.11)">
       <use xlink:href="#DejaVuSans-34"/>
       <use xlink:href="#DejaVuSans-30" transform="translate(63.623047 0)"/>
       <use xlink:href="#DejaVuSans-30" transform="translate(127.246094 0)"/>
       <use xlink:href="#DejaVuSans-30" transform="translate(190.869141 0)"/>
      </g>
     </g>
    </g>
    <g id="xtick_10">
     <g id="line2d_23">
      <path d="M 651.493967 530.1
L 651.493967 313.44
" clip-path="url(#p4f2d0c32ea)" style="fill: none; stroke: #cccccc; stroke-linecap: round"/>
     </g>
     <g id="text_22">
      <!-- 6000 -->
      <g style="fill: #262626" transform="translate(637.496467 547.958281) scale(0.11 -0.11)">
       <use xlink:href="#DejaVuSans-36"/>
       <use xlink:href="#DejaVuSans-30" transform="translate(63.623047 0)"/>
       <use xlink:href="#DejaVuSans-30" transform="translate(127.246094 0)"/>
       <use xlink:href="#DejaVuSans-30" transform="translate(190.869141 0)"/>
      </g>
     </g>
    </g>
    <g id="xtick_11">
     <g id="line2d_24">
      <path d="M 836.386529 530.1
L 836.386529 313.44
" clip-path="url(#p4f2d0c32ea)" style="fill: none; stroke: #cccccc; stroke-linecap: round"/>
     </g>
     <g id="text_23">
      <!-- 8000 -->
      <g style="fill: #262626" transform="translate(822.389029 547.958281) scale(0.11 -0.11)">
       <use xlink:href="#DejaVuSans-38"/>
       <use xlink:href="#DejaVuSans-30" transform="translate(63.623047 0)"/>
       <use xlink:href="#DejaVuSans-30" transform="translate(127.246094 0)"/>
       <use xlink:href="#DejaVuSans-30" transform="translate(190.869141 0)"/>
      </g>
     </g>
    </g>
    <g id="xtick_12">
     <g id="line2d_25">
      <path d="M 1021.279091 530.1
L 1021.279091 313.44
" clip-path="url(#p4f2d0c32ea)" style="fill: none; stroke: #cccccc; stroke-linecap: round"/>
     </g>
     <g id="text_24">
      <!-- 10000 -->
      <g style="fill: #262626" transform="translate(1003.782216 547.958281) scale(0.11 -0.11)">
       <use xlink:href="#DejaVuSans-31"/>
       <use xlink:href="#DejaVuSans-30" transform="translate(63.623047 0)"/>
       <use xlink:href="#DejaVuSans-30" transform="translate(127.246094 0)"/>
       <use xlink:href="#DejaVuSans-30" transform="translate(190.869141 0)"/>
       <use xlink:href="#DejaVuSans-30" transform="translate(254.492188 0)"/>
      </g>
     </g>
    </g>
    <g id="text_25">
     <!-- Frequency (Hz) -->
     <g style="fill: #262626" transform="translate(518.424375 563.364063) scale(0.12 -0.12)">
      <defs>
       <path id="DejaVuSans-46" d="M 628 4666
L 3309 4666
L 3309 4134
L 1259 4134
L 1259 2759
L 3109 2759
L 3109 2228
L 1259 2228
L 1259 0
L 628 0
L 628 4666
z
" transform="scale(0.015625)"/>
       <path id="DejaVuSans-71" d="M 947 1747
Q 947 1113 1208 752
Q 1469 391 1925 391
Q 2381 391 2643 752
Q 2906 1113 2906 1747
Q 2906 2381 2643 2742
Q 2381 3103 1925 3103
Q 1469 3103 1208 2742
Q 947 2381 947 1747
z
M 2906 525
Q 2725 213 2448 61
Q 2172 -91 1784 -91
Q 1150 -91 751 415
Q 353 922 353 1747
Q 353 2572 751 3078
Q 1150 3584 1784 3584
Q 2172 3584 2448 3432
Q 2725 3281 2906 2969
L 2906 3500
L 3481 3500
L 3481 -1331
L 2906 -1331
L 2906 525
z
" transform="scale(0.015625)"/>
       <path id="DejaVuSans-75" d="M 544 1381
L 544 3500
L 1119 3500
L 1119 1403
Q 1119 906 1312 657
Q 1506 409 1894 409
Q 2359 409 2629 706
Q 2900 1003 2900 1516
L 2900 3500
L 3475 3500
L 3475 0
L 2900 0
L 2900 538
Q 2691 219 2414 64
Q 2138 -91 1772 -91
Q 1169 -91 856 284
Q 544 659 544 1381
z
M 1991 3584
L 1991 3584
z
" transform="scale(0.015625)"/>
       <path id="DejaVuSans-63" d="M 3122 3366
L 3122 2828
Q 2878 2963 2633 3030
Q 2388 3097 2138 3097
Q 1578 3097 1268 2742
Q 959 2388 959 1747
Q 959 1106 1268 751
Q 1578 397 2138 397
Q 2388 397 2633 464
Q 2878 531 3122 666
L 3122 134
Q 2881 22 2623 -34
Q 2366 -91 2075 -91
Q 1284 -91 818 406
Q 353 903 353 1747
Q 353 2603 823 3093
Q 1294 3584 2113 3584
Q 2378 3584 2631 3529
Q 2884 3475 3122 3366
z
" transform="scale(0.015625)"/>
       <path id="DejaVuSans-79" d="M 2059 -325
Q 1816 -950 1584 -1140
Q 1353 -1331 966 -1331
L 506 -1331
L 506 -850
L 844 -850
Q 1081 -850 1212 -737
Q 1344 -625 1503 -206
L 1606 56
L 191 3500
L 800 3500
L 1894 763
L 2988 3500
L 3597 3500
L 2059 -325
z
" transform="scale(0.015625)"/>
      </defs>
      <use xlink:href="#DejaVuSans-46"/>
      <use xlink:href="#DejaVuSans-72" transform="translate(50.269531 0)"/>
      <use xlink:href="#DejaVuSans-65" transform="translate(89.132812 0)"/>
      <use xlink:href="#DejaVuSans-71" transform="translate(150.65625 0)"/>
      <use xlink:href="#DejaVuSans-75" transform="translate(214.132812 0)"/>
      <use xlink:href="#DejaVuSans-65" transform="translate(277.511719 0)"/>
      <use xlink:href="#DejaVuSans-6e" transform="translate(339.035156 0)"/>
      <use xlink:href="#DejaVuSans-63" transform="translate(402.414062 0)"/>
      <use xlink:href="#DejaVuSans-79" transform="translate(457.394531 0)"/>
      <use xlink:href="#DejaVuSans-20" transform="translate(516.574219 0)"/>
      <use xlink:href="#DejaVuSans-28" transform="translate(548.361328 0)"/>
      <use xlink:href="#DejaVuSans-48" transform="translate(587.375 0)"/>
      <use xlink:href="#DejaVuSans-7a" transform="translate(662.570312 0)"/>
      <use xlink:href="#DejaVuSans-29" transform="translate(715.060547 0)"/>
     </g>
    </g>
   </g>
   <g id="matplotlib.axis_4">
    <g id="ytick_6">
     <g id="line2d_26">
      <path d="M 60.3 522.661291
L 1067.04 522.661291
" clip-path="url(#p4f2d0c32ea)" style="fill: none; stroke: #cccccc; stroke-linecap: round"/>
     </g>
     <g id="text_26">
      <!-- 100 -->
      <g style="fill: #262626" transform="translate(29.80375 526.840431) scale(0.11 -0.11)">
       <use xlink:href="#DejaVuSans-31"/>
       <use xlink:href="#DejaVuSans-30" transform="translate(63.623047 0)"/>
       <use xlink:href="#DejaVuSans-30" transform="translate(127.246094 0)"/>
      </g>
     </g>
    </g>
    <g id="ytick_7">
     <g id="line2d_27">
      <path d="M 60.3 493.519947
L 1067.04 493.519947
" clip-path="url(#p4f2d0c32ea)" style="fill: none; stroke: #cccccc; stroke-linecap: round"/>
     </g>
     <g id="text_27">
      <!-- 200 -->
      <g style="fill: #262626" transform="translate(29.80375 497.699087) scale(0.11 -0.11)">
       <use xlink:href="#DejaVuSans-32"/>
       <use xlink:href="#DejaVuSans-30" transform="translate(63.623047 0)"/>
       <use xlink:href="#DejaVuSans-30" transform="translate(127.246094 0)"/>
      </g>
     </g>
    </g>
    <g id="ytick_8">
     <g id="line2d_28">
      <path d="M 60.3 464.378603
L 1067.04 464.378603
" clip-path="url(#p4f2d0c32ea)" style="fill: none; stroke: #cccccc; stroke-linecap: round"/>
     </g>
     <g id="text_28">
      <!-- 300 -->
      <g style="fill: #262626" transform="translate(29.80375 468.557743) scale(0.11 -0.11)">
       <use xlink:href="#DejaVuSans-33"/>
       <use xlink:href="#DejaVuSans-30" transform="translate(63.623047 0)"/>
       <use xlink:href="#DejaVuSans-30" transform="translate(127.246094 0)"/>
      </g>
     </g>
    </g>
    <g id="ytick_9">
     <g id="line2d_29">
      <path d="M 60.3 435.237259
L 1067.04 435.237259
" clip-path="url(#p4f2d0c32ea)" style="fill: none; stroke: #cccccc; stroke-linecap: round"/>
     </g>
     <g id="text_29">
      <!-- 400 -->
      <g style="fill: #262626" transform="translate(29.80375 439.4164) scale(0.11 -0.11)">
       <use xlink:href="#DejaVuSans-34"/>
       <use xlink:href="#DejaVuSans-30" transform="translate(63.623047 0)"/>
       <use xlink:href="#DejaVuSans-30" transform="translate(127.246094 0)"/>
      </g>
     </g>
    </g>
    <g id="ytick_10">
     <g id="line2d_30">
      <path d="M 60.3 406.095915
L 1067.04 406.095915
" clip-path="url(#p4f2d0c32ea)" style="fill: none; stroke: #cccccc; stroke-linecap: round"/>
     </g>
     <g id="text_30">
      <!-- 500 -->
      <g style="fill: #262626" transform="translate(29.80375 410.275056) scale(0.11 -0.11)">
       <use xlink:href="#DejaVuSans-35"/>
       <use xlink:href="#DejaVuSans-30" transform="translate(63.623047 0)"/>
       <use xlink:href="#DejaVuSans-30" transform="translate(127.246094 0)"/>
      </g>
     </g>
    </g>
    <g id="ytick_11">
     <g id="line2d_31">
      <path d="M 60.3 376.954571
L 1067.04 376.954571
" clip-path="url(#p4f2d0c32ea)" style="fill: none; stroke: #cccccc; stroke-linecap: round"/>
     </g>
     <g id="text_31">
      <!-- 600 -->
      <g style="fill: #262626" transform="translate(29.80375 381.133712) scale(0.11 -0.11)">
       <use xlink:href="#DejaVuSans-36"/>
       <use xlink:href="#DejaVuSans-30" transform="translate(63.623047 0)"/>
       <use xlink:href="#DejaVuSans-30" transform="translate(127.246094 0)"/>
      </g>
     </g>
    </g>
    <g id="ytick_12">
     <g id="line2d_32">
      <path d="M 60.3 347.813227
L 1067.04 347.813227
" clip-path="url(#p4f2d0c32ea)" style="fill: none; stroke: #cccccc; stroke-linecap: round"/>
     </g>
     <g id="text_32">
      <!-- 700 -->
      <g style="fill: #262626" transform="translate(29.80375 351.992368) scale(0.11 -0.11)">
       <defs>
        <path id="DejaVuSans-37" d="M 525 4666
L 3525 4666
L 3525 4397
L 1831 0
L 1172 0
L 2766 4134
L 525 4134
L 525 4666
z
" transform="scale(0.015625)"/>
       </defs>
       <use xlink:href="#DejaVuSans-37"/>
       <use xlink:href="#DejaVuSans-30" transform="translate(63.623047 0)"/>
       <use xlink:href="#DejaVuSans-30" transform="translate(127.246094 0)"/>
      </g>
     </g>
    </g>
    <g id="ytick_13">
     <g id="line2d_33">
      <path d="M 60.3 318.671884
L 1067.04 318.671884
" clip-path="url(#p4f2d0c32ea)" style="fill: none; stroke: #cccccc; stroke-linecap: round"/>
     </g>
     <g id="text_33">
      <!-- 800 -->
      <g style="fill: #262626" transform="translate(29.80375 322.851024) scale(0.11 -0.11)">
       <use xlink:href="#DejaVuSans-38"/>
       <use xlink:href="#DejaVuSans-30" transform="translate(63.623047 0)"/>
       <use xlink:href="#DejaVuSans-30" transform="translate(127.246094 0)"/>
      </g>
     </g>
    </g>
    <g id="text_34">
     <!-- Step Distance (nm) -->
     <g style="fill: #262626" transform="translate(23.308125 479.809688) rotate(-90) scale(0.12 -0.12)">
      <defs>
       <path id="DejaVuSans-53" d="M 3425 4513
L 3425 3897
Q 3066 4069 2747 4153
Q 2428 4238 2131 4238
Q 1616 4238 1336 4038
Q 1056 3838 1056 3469
Q 1056 3159 1242 3001
Q 1428 2844 1947 2747
L 2328 2669
Q 3034 2534 3370 2195
Q 3706 1856 3706 1288
Q 3706 609 3251 259
Q 2797 -91 1919 -91
Q 1588 -91 1214 -16
Q 841 59 441 206
L 441 856
Q 825 641 1194 531
Q 1563 422 1919 422
Q 2459 422 2753 634
Q 3047 847 3047 1241
Q 3047 1584 2836 1778
Q 2625 1972 2144 2069
L 1759 2144
Q 1053 2284 737 2584
Q 422 2884 422 3419
Q 422 4038 858 4394
Q 1294 4750 2059 4750
Q 2388 4750 2728 4690
Q 3069 4631 3425 4513
z
" transform="scale(0.015625)"/>
      </defs>
      <use xlink:href="#DejaVuSans-53"/>
      <use xlink:href="#DejaVuSans-74" transform="translate(63.476562 0)"/>
      <use xlink:href="#DejaVuSans-65" transform="translate(102.685547 0)"/>
      <use xlink:href="#DejaVuSans-70" transform="translate(164.208984 0)"/>
      <use xlink:href="#DejaVuSans-20" transform="translate(227.685547 0)"/>
      <use xlink:href="#DejaVuSans-44" transform="translate(259.472656 0)"/>
      <use xlink:href="#DejaVuSans-69" transform="translate(336.474609 0)"/>
      <use xlink:href="#DejaVuSans-73" transform="translate(364.257812 0)"/>
      <use xlink:href="#DejaVuSans-74" transform="translate(416.357422 0)"/>
      <use xlink:href="#DejaVuSans-61" transform="translate(455.566406 0)"/>
      <use xlink:href="#DejaVuSans-6e" transform="translate(516.845703 0)"/>
      <use xlink:href="#DejaVuSans-63" transform="translate(580.224609 0)"/>
      <use xlink:href="#DejaVuSans-65" transform="translate(635.205078 0)"/>
      <use xlink:href="#DejaVuSans-20" transform="translate(696.728516 0)"/>
      <use xlink:href="#DejaVuSans-28" transform="translate(728.515625 0)"/>
      <use xlink:href="#DejaVuSans-6e" transform="translate(767.529297 0)"/>
      <use xlink:href="#DejaVuSans-6d" transform="translate(830.908203 0)"/>
      <use xlink:href="#DejaVuSans-29" transform="translate(928.320312 0)"/>
     </g>
    </g>
   </g>
   <g id="line2d_34">
    <path d="M 106.060909 323.288182
L 115.305537 327.813071
L 124.550165 332.248362
L 133.794793 336.595828
L 143.039421 340.857208
L 152.28405 345.034207
L 161.528678 349.128496
L 170.773306 353.141713
L 180.017934 357.075463
L 189.262562 360.931319
L 198.50719 364.710825
L 207.751818 368.415491
L 216.996446 372.046799
L 226.241074 375.606203
L 235.485702 379.095126
L 244.730331 382.514964
L 253.974959 385.867085
L 263.219587 389.152829
L 272.464215 392.373511
L 281.708843 395.530419
L 290.953471 398.624816
L 300.198099 401.65794
L 309.442727 404.631004
L 318.687355 407.545198
L 327.931983 410.401686
L 337.176612 413.201613
L 346.42124 415.946097
L 355.665868 418.636236
L 364.910496 421.273108
L 374.155124 423.857766
L 383.399752 426.391244
L 392.64438 428.874556
L 401.889008 431.308695
L 411.133636 433.694635
L 420.378264 436.03333
L 429.622893 438.325716
L 438.867521 440.572709
L 448.112149 442.775209
L 457.356777 444.934097
L 466.601405 447.050236
L 475.846033 449.124472
L 485.090661 451.157636
L 494.335289 453.15054
L 503.579917 455.103983
L 512.824545 457.018744
L 522.069174 458.895591
L 531.313802 460.735274
L 540.55843 462.538528
L 549.803058 464.306076
L 559.047686 466.038624
L 568.292314 467.736865
L 577.536942 469.401479
L 586.78157 471.033131
L 596.026198 472.632475
L 605.270826 474.200149
L 614.515455 475.736781
L 623.760083 477.242986
L 633.004711 478.719366
L 642.249339 480.166511
L 651.493967 481.585002
L 660.738595 482.975404
L 669.983223 484.338274
L 679.227851 485.674158
L 688.472479 486.98359
L 697.717107 488.267093
L 706.961736 489.525181
L 716.206364 490.758357
L 725.450992 491.967115
L 734.69562 493.151937
L 743.940248 494.313299
L 753.184876 495.451664
L 762.429504 496.567488
L 771.674132 497.661217
L 780.91876 498.733289
L 790.163388 499.784133
L 799.408017 500.814168
L 808.652645 501.823807
L 817.897273 502.813454
L 827.141901 503.783505
L 836.386529 504.734348
L 845.631157 505.666362
L 854.875785 506.579921
L 864.120413 507.475391
L 873.365041 508.353129
L 882.609669 509.213487
L 891.854298 510.056809
L 901.098926 510.883432
L 910.343554 511.693686
L 919.588182 512.487896
L 928.83281 513.26638
L 938.077438 514.029449
L 947.322066 514.777409
L 956.566694 515.510557
L 965.811322 516.229188
L 975.05595 516.93359
L 984.300579 517.624043
L 993.545207 518.300825
L 1002.789835 518.964205
L 1012.034463 519.614449
L 1021.279091 520.251818
" clip-path="url(#p4f2d0c32ea)" style="fill: none; stroke: #4c72b0; stroke-width: 2; stroke-linecap: round"/>
   </g>
   <g id="patch_9">
    <path d="M 60.3 530.1
L 60.3 313.44
" style="fill: none; stroke: #cccccc; stroke-width: 1.25; stroke-linejoin: miter; stroke-linecap: square"/>
   </g>
   <g id="patch_10">
    <path d="M 1067.04 530.1
L 1067.04 313.44
" style="fill: none; stroke: #cccccc; stroke-width: 1.25; stroke-linejoin: miter; stroke-linecap: square"/>
   </g>
   <g id="patch_11">
    <path d="M 60.3 530.1
L 1067.04 530.1
" style="fill: none; stroke: #cccccc; stroke-width: 1.25; stroke-linejoin: miter; stroke-linecap: square"/>
   </g>
   <g id="patch_12">
    <path d="M 60.3 313.44
L 1067.04 313.44
" style="fill: none; stroke: #cccccc; stroke-width: 1.25; stroke-linejoin: miter; stroke-linecap: square"/>
   </g>
   <g id="text_35">
    <!-- Step Distance vs Frequency (Trapezoidal Wave, V=80V) -->
    <g style="fill: #262626" transform="translate(368.830469 307.44) scale(0.14 -0.14)">
     <use xlink:href="#DejaVuSans-53"/>
     <use xlink:href="#DejaVuSans-74" transform="translate(63.476562 0)"/>
     <use xlink:href="#DejaVuSans-65" transform="translate(102.685547 0)"/>
     <use xlink:href="#DejaVuSans-70" transform="translate(164.208984 0)"/>
     <use xlink:href="#DejaVuSans-20" transform="translate(227.685547 0)"/>
     <use xlink:href="#DejaVuSans-44" transform="translate(259.472656 0)"/>
     <use xlink:href="#DejaVuSans-69" transform="translate(336.474609 0)"/>
     <use xlink:href="#DejaVuSans-73" transform="translate(364.257812 0)"/>
     <use xlink:href="#DejaVuSans-74" transform="translate(416.357422 0)"/>
     <use xlink:href="#DejaVuSans-61" transform="translate(455.566406 0)"/>
     <use xlink:href="#DejaVuSans-6e" transform="translate(516.845703 0)"/>
     <use xlink:href="#DejaVuSans-63" transform="translate(580.224609 0)"/>
     <use xlink:href="#DejaVuSans-65" transform="translate(635.205078 0)"/>
     <use xlink:href="#DejaVuSans-20" transform="translate(696.728516 0)"/>
     <use xlink:href="#DejaVuSans-76" transform="translate(728.515625 0)"/>
     <use xlink:href="#DejaVuSans-73" transform="translate(787.695312 0)"/>
     <use xlink:href="#DejaVuSans-20" transform="translate(839.794922 0)"/>
     <use xlink:href="#DejaVuSans-46" transform="translate(871.582031 0)"/>
     <use xlink:href="#DejaVuSans-72" transform="translate(921.851562 0)"/>
     <use xlink:href="#DejaVuSans-65" transform="translate(960.714844 0)"/>
     <use xlink:href="#DejaVuSans-71" transform="translate(1022.238281 0)"/>
     <use xlink:href="#DejaVuSans-75" transform="translate(1085.714844 0)"/>
     <use xlink:href="#DejaVuSans-65" transform="translate(1149.09375 0)"/>
     <use xlink:href="#DejaVuSans-6e" transform="translate(1210.617188 0)"/>
     <use xlink:href="#DejaVuSans-63" transform="translate(1273.996094 0)"/>
     <use xlink:href="#DejaVuSans-79" transform="translate(1328.976562 0)"/>
     <use xlink:href="#DejaVuSans-20" transform="translate(1388.15625 0)"/>
     <use xlink:href="#DejaVuSans-28" transform="translate(1419.943359 0)"/>
     <use xlink:href="#DejaVuSans-54" transform="translate(1458.957031 0)"/>
     <use xlink:href="#DejaVuSans-72" transform="translate(1505.291016 0)"/>
     <use xlink:href="#DejaVuSans-61" transform="translate(1546.404297 0)"/>
     <use xlink:href="#DejaVuSans-70" transform="translate(1607.683594 0)"/>
     <use xlink:href="#DejaVuSans-65" transform="translate(1671.160156 0)"/>
     <use xlink:href="#DejaVuSans-7a" transform="translate(1732.683594 0)"/>
     <use xlink:href="#DejaVuSans-6f" transform="translate(1785.173828 0)"/>
     <use xlink:href="#DejaVuSans-69" transform="translate(1846.355469 0)"/>
     <use xlink:href="#DejaVuSans-64" transform="translate(1874.138672 0)"/>
     <use xlink:href="#DejaVuSans-61" transform="translate(1937.615234 0)"/>
     <use xlink:href="#DejaVuSans-6c" transform="translate(1998.894531 0)"/>
     <use xlink:href="#DejaVuSans-20" transform="translate(2026.677734 0)"/>
     <use xlink:href="#DejaVuSans-57" transform="translate(2058.464844 0)"/>
     <use xlink:href="#DejaVuSans-61" transform="translate(2150.966797 0)"/>
     <use xlink:href="#DejaVuSans-76" transform="translate(2212.246094 0)"/>
     <use xlink:href="#DejaVuSans-65" transform="translate(2271.425781 0)"/>
     <use xlink:href="#DejaVuSans-2c" transform="translate(2332.949219 0)"/>
     <use xlink:href="#DejaVuSans-20" transform="translate(2364.736328 0)"/>
     <use xlink:href="#DejaVuSans-56" transform="translate(2396.523438 0)"/>
     <use xlink:href="#DejaVuSans-3d" transform="translate(2464.931641 0)"/>
     <use xlink:href="#DejaVuSans-38" transform="translate(2548.720703 0)"/>
     <use xlink:href="#DejaVuSans-30" transform="translate(2612.34375 0)"/>
     <use xlink:href="#DejaVuSans-56" transform="translate(2675.966797 0)"/>
     <use xlink:href="#DejaVuSans-29" transform="translate(2744.375 0)"/>
    </g>
   </g>
  </g>
  <g id="axes_3">
   <g id="patch_13">
    <path d="M 60.3 813.78
L 1067.04 813.78
L 1067.04 597.12
L 60.3 597.12
z
" style="fill: #ffffff"/>
   </g>
   <g id="matplotlib.axis_5">
    <g id="xtick_13">
     <g id="line2d_35">
      <path d="M 106.060909 813.78
L 106.060909 597.12
" clip-path="url(#p7f0ababece)" style="fill: none; stroke: #cccccc; stroke-linecap: round"/>
     </g>
     <g id="text_36">
      <!-- 0.0 -->
      <g style="fill: #262626" transform="translate(97.31419 831.638281) scale(0.11 -0.11)">
       <use xlink:href="#DejaVuSans-30"/>
       <use xlink:href="#DejaVuSans-2e" transform="translate(63.623047 0)"/>
       <use xlink:href="#DejaVuSans-30" transform="translate(95.410156 0)"/>
      </g>
     </g>
    </g>
    <g id="xtick_14">
     <g id="line2d_36">
      <path d="M 289.104545 813.78
L 289.104545 597.12
" clip-path="url(#p7f0ababece)" style="fill: none; stroke: #cccccc; stroke-linecap: round"/>
     </g>
     <g id="text_37">
      <!-- 0.5 -->
      <g style="fill: #262626" transform="translate(280.357827 831.638281) scale(0.11 -0.11)">
       <use xlink:href="#DejaVuSans-30"/>
       <use xlink:href="#DejaVuSans-2e" transform="translate(63.623047 0)"/>
       <use xlink:href="#DejaVuSans-35" transform="translate(95.410156 0)"/>
      </g>
     </g>
    </g>
    <g id="xtick_15">
     <g id="line2d_37">
      <path d="M 472.148182 813.78
L 472.148182 597.12
" clip-path="url(#p7f0ababece)" style="fill: none; stroke: #cccccc; stroke-linecap: round"/>
     </g>
     <g id="text_38">
      <!-- 1.0 -->
      <g style="fill: #262626" transform="translate(463.401463 831.638281) scale(0.11 -0.11)">
       <use xlink:href="#DejaVuSans-31"/>
       <use xlink:href="#DejaVuSans-2e" transform="translate(63.623047 0)"/>
       <use xlink:href="#DejaVuSans-30" transform="translate(95.410156 0)"/>
      </g>
     </g>
    </g>
    <g id="xtick_16">
     <g id="line2d_38">
      <path d="M 655.191818 813.78
L 655.191818 597.12
" clip-path="url(#p7f0ababece)" style="fill: none; stroke: #cccccc; stroke-linecap: round"/>
     </g>
     <g id="text_39">
      <!-- 1.5 -->
      <g style="fill: #262626" transform="translate(646.445099 831.638281) scale(0.11 -0.11)">
       <use xlink:href="#DejaVuSans-31"/>
       <use xlink:href="#DejaVuSans-2e" transform="translate(63.623047 0)"/>
       <use xlink:href="#DejaVuSans-35" transform="translate(95.410156 0)"/>
      </g>
     </g>
    </g>
    <g id="xtick_17">
     <g id="line2d_39">
      <path d="M 838.235455 813.78
L 838.235455 597.12
" clip-path="url(#p7f0ababece)" style="fill: none; stroke: #cccccc; stroke-linecap: round"/>
     </g>
     <g id="text_40">
      <!-- 2.0 -->
      <g style="fill: #262626" transform="translate(829.488736 831.638281) scale(0.11 -0.11)">
       <use xlink:href="#DejaVuSans-32"/>
       <use xlink:href="#DejaVuSans-2e" transform="translate(63.623047 0)"/>
       <use xlink:href="#DejaVuSans-30" transform="translate(95.410156 0)"/>
      </g>
     </g>
    </g>
    <g id="xtick_18">
     <g id="line2d_40">
      <path d="M 1021.279091 813.78
L 1021.279091 597.12
" clip-path="url(#p7f0ababece)" style="fill: none; stroke: #cccccc; stroke-linecap: round"/>
     </g>
     <g id="text_41">
      <!-- 2.5 -->
      <g style="fill: #262626" transform="translate(1012.532372 831.638281) scale(0.11 -0.11)">
       <use xlink:href="#DejaVuSans-32"/>
       <use xlink:href="#DejaVuSans-2e" transform="translate(63.623047 0)"/>
       <use xlink:href="#DejaVuSans-35" transform="translate(95.410156 0)"/>
      </g>
     </g>
    </g>
    <g id="text_42">
     <!-- Time (ms) -->
     <g style="fill: #262626" transform="translate(533.430937 847.044063) scale(0.12 -0.12)">
      <use xlink:href="#DejaVuSans-54"/>
      <use xlink:href="#DejaVuSans-69" transform="translate(57.958984 0)"/>
      <use xlink:href="#DejaVuSans-6d" transform="translate(85.742188 0)"/>
      <use xlink:href="#DejaVuSans-65" transform="translate(183.154297 0)"/>
      <use xlink:href="#DejaVuSans-20" transform="translate(244.677734 0)"/>
      <use xlink:href="#DejaVuSans-28" transform="translate(276.464844 0)"/>
      <use xlink:href="#DejaVuSans-6d" transform="translate(315.478516 0)"/>
      <use xlink:href="#DejaVuSans-73" transform="translate(412.890625 0)"/>
      <use xlink:href="#DejaVuSans-29" transform="translate(464.990234 0)"/>
     </g>
    </g>
   </g>
   <g id="matplotlib.axis_6">
    <g id="ytick_14">
     <g id="line2d_41">
      <path d="M 60.3 803.931818
L 1067.04 803.931818
" clip-path="url(#p7f0ababece)" style="fill: none; stroke: #cccccc; stroke-linecap: round"/>
     </g>
     <g id="text_43">
      <!-- 0 -->
      <g style="fill: #262626" transform="translate(43.80125 808.110959) scale(0.11 -0.11)">
       <use xlink:href="#DejaVuSans-30"/>
      </g>
     </g>
    </g>
    <g id="ytick_15">
     <g id="line2d_42">
      <path d="M 60.3 779.495676
L 1067.04 779.495676
" clip-path="url(#p7f0ababece)" style="fill: none; stroke: #cccccc; stroke-linecap: round"/>
     </g>
     <g id="text_44">
      <!-- 50 -->
      <g style="fill: #262626" transform="translate(36.8025 783.674816) scale(0.11 -0.11)">
       <use xlink:href="#DejaVuSans-35"/>
       <use xlink:href="#DejaVuSans-30" transform="translate(63.623047 0)"/>
      </g>
     </g>
    </g>
    <g id="ytick_16">
     <g id="line2d_43">
      <path d="M 60.3 755.059533
L 1067.04 755.059533
" clip-path="url(#p7f0ababece)" style="fill: none; stroke: #cccccc; stroke-linecap: round"/>
     </g>
     <g id="text_45">
      <!-- 100 -->
      <g style="fill: #262626" transform="translate(29.80375 759.238674) scale(0.11 -0.11)">
       <use xlink:href="#DejaVuSans-31"/>
       <use xlink:href="#DejaVuSans-30" transform="translate(63.623047 0)"/>
       <use xlink:href="#DejaVuSans-30" transform="translate(127.246094 0)"/>
      </g>
     </g>
    </g>
    <g id="ytick_17">
     <g id="line2d_44">
      <path d="M 60.3 730.623391
L 1067.04 730.623391
" clip-path="url(#p7f0ababece)" style="fill: none; stroke: #cccccc; stroke-linecap: round"/>
     </g>
     <g id="text_46">
      <!-- 150 -->
      <g style="fill: #262626" transform="translate(29.80375 734.802531) scale(0.11 -0.11)">
       <use xlink:href="#DejaVuSans-31"/>
       <use xlink:href="#DejaVuSans-35" transform="translate(63.623047 0)"/>
       <use xlink:href="#DejaVuSans-30" transform="translate(127.246094 0)"/>
      </g>
     </g>
    </g>
    <g id="ytick_18">
     <g id="line2d_45">
      <path d="M 60.3 706.187248
L 1067.04 706.187248
" clip-path="url(#p7f0ababece)" style="fill: none; stroke: #cccccc; stroke-linecap: round"/>
     </g>
     <g id="text_47">
      <!-- 200 -->
      <g style="fill: #262626" transform="translate(29.80375 710.366389) scale(0.11 -0.11)">
       <use xlink:href="#DejaVuSans-32"/>
       <use xlink:href="#DejaVuSans-30" transform="translate(63.623047 0)"/>
       <use xlink:href="#DejaVuSans-30" transform="translate(127.246094 0)"/>
      </g>
     </g>
    </g>
    <g id="ytick_19">
     <g id="line2d_46">
      <path d="M 60.3 681.751105
L 1067.04 681.751105
" clip-path="url(#p7f0ababece)" style="fill: none; stroke: #cccccc; stroke-linecap: round"/>
     </g>
     <g id="text_48">
      <!-- 250 -->
      <g style="fill: #262626" transform="translate(29.80375 685.930246) scale(0.11 -0.11)">
       <use xlink:href="#DejaVuSans-32"/>
       <use xlink:href="#DejaVuSans-35" transform="translate(63.623047 0)"/>
       <use xlink:href="#DejaVuSans-30" transform="translate(127.246094 0)"/>
      </g>
     </g>
    </g>
    <g id="ytick_20">
     <g id="line2d_47">
      <path d="M 60.3 657.314963
L 1067.04 657.314963
" clip-path="url(#p7f0ababece)" style="fill: none; stroke: #cccccc; stroke-linecap: round"/>
     </g>
     <g id="text_49">
      <!-- 300 -->
      <g style="fill: #262626" transform="translate(29.80375 661.494103) scale(0.11 -0.11)">
       <use xlink:href="#DejaVuSans-33"/>
       <use xlink:href="#DejaVuSans-30" transform="translate(63.623047 0)"/>
       <use xlink:href="#DejaVuSans-30" transform="translate(127.246094 0)"/>
      </g>
     </g>
    </g>
    <g id="ytick_21">
     <g id="line2d_48">
      <path d="M 60.3 632.87882
L 1067.04 632.87882
" clip-path="url(#p7f0ababece)" style="fill: none; stroke: #cccccc; stroke-linecap: round"/>
     </g>
     <g id="text_50">
      <!-- 350 -->
      <g style="fill: #262626" transform="translate(29.80375 637.057961) scale(0.11 -0.11)">
       <use xlink:href="#DejaVuSans-33"/>
       <use xlink:href="#DejaVuSans-35" transform="translate(63.623047 0)"/>
       <use xlink:href="#DejaVuSans-30" transform="translate(127.246094 0)"/>
      </g>
     </g>
    </g>
    <g id="ytick_22">
     <g id="line2d_49">
      <path d="M 60.3 608.442678
L 1067.04 608.442678
" clip-path="url(#p7f0ababece)" style="fill: none; stroke: #cccccc; stroke-linecap: round"/>
     </g>
     <g id="text_51">
      <!-- 400 -->
      <g style="fill: #262626" transform="translate(29.80375 612.621818) scale(0.11 -0.11)">
       <use xlink:href="#DejaVuSans-34"/>
       <use xlink:href="#DejaVuSans-30" transform="translate(63.623047 0)"/>
       <use xlink:href="#DejaVuSans-30" transform="translate(127.246094 0)"/>
      </g>
     </g>
    </g>
    <g id="text_52">
     <!-- Cumulative Displacement (nm) -->
     <g style="fill: #262626" transform="translate(23.308125 799.084688) rotate(-90) scale(0.12 -0.12)">
      <use xlink:href="#DejaVuSans-43"/>
      <use xlink:href="#DejaVuSans-75" transform="translate(69.824219 0)"/>
      <use xlink:href="#DejaVuSans-6d" transform="translate(133.203125 0)"/>
      <use xlink:href="#DejaVuSans-75" transform="translate(230.615234 0)"/>
      <use xlink:href="#DejaVuSans-6c" transform="translate(293.994141 0)"/>
      <use xlink:href="#DejaVuSans-61" transform="translate(321.777344 0)"/>
      <use xlink:href="#DejaVuSans-74" transform="translate(383.056641 0)"/>
      <use xlink:href="#DejaVuSans-69" transform="translate(422.265625 0)"/>
      <use xlink:href="#DejaVuSans-76" transform="translate(450.048828 0)"/>
      <use xlink:href="#DejaVuSans-65" transform="translate(509.228516 0)"/>
      <use xlink:href="#DejaVuSans-20" transform="translate(570.751953 0)"/>
      <use xlink:href="#DejaVuSans-44" transform="translate(602.539062 0)"/>
      <use xlink:href="#DejaVuSans-69" transform="translate(679.541016 0)"/>
      <use xlink:href="#DejaVuSans-73" transform="translate(707.324219 0)"/>
      <use xlink:href="#DejaVuSans-70" transform="translate(759.423828 0)"/>
      <use xlink:href="#DejaVuSans-6c" transform="translate(822.900391 0)"/>
      <use xlink:href="#DejaVuSans-61" transform="translate(850.683594 0)"/>
      <use xlink:href="#DejaVuSans-63" transform="translate(911.962891 0)"/>
      <use xlink:href="#DejaVuSans-65" transform="translate(966.943359 0)"/>
      <use xlink:href="#DejaVuSans-6d" transform="translate(1028.466797 0)"/>
      <use xlink:href="#DejaVuSans-65" transform="translate(1125.878906 0)"/>
      <use xlink:href="#DejaVuSans-6e" transform="translate(1187.402344 0)"/>
      <use xlink:href="#DejaVuSans-74" transform="translate(1250.78125 0)"/>
      <use xlink:href="#DejaVuSans-20" transform="translate(1289.990234 0)"/>
      <use xlink:href="#DejaVuSans-28" transform="translate(1321.777344 0)"/>
      <use xlink:href="#DejaVuSans-6e" transform="translate(1360.791016 0)"/>
      <use xlink:href="#DejaVuSans-6d" transform="translate(1424.169922 0)"/>
      <use xlink:href="#DejaVuSans-29" transform="translate(1521.582031 0)"/>
     </g>
    </g>
   </g>
   <g id="line2d_50">
    <path d="M 106.060909 803.931818
L 197.170673 803.931818
L 215.942031 738.277273
L 563.441081 738.277273
L 582.212439 672.622727
L 929.711489 672.622727
L 948.482847 606.968182
L 1021.279091 606.968182
L 1021.279091 606.968182
" clip-path="url(#p7f0ababece)" style="fill: none; stroke: #55a868; stroke-width: 2; stroke-linecap: round"/>
   </g>
   <g id="patch_14">
    <path d="M 60.3 813.78
L 60.3 597.12
" style="fill: none; stroke: #cccccc; stroke-width: 1.25; stroke-linejoin: miter; stroke-linecap: square"/>
   </g>
   <g id="patch_15">
    <path d="M 1067.04 813.78
L 1067.04 597.12
" style="fill: none; stroke: #cccccc; stroke-width: 1.25; stroke-linejoin: miter; stroke-linecap: square"/>
   </g>
   <g id="patch_16">
    <path d="M 60.3 813.78
L 1067.04 813.78
" style="fill: none; stroke: #cccccc; stroke-width: 1.25; stroke-linejoin: miter; stroke-linecap: square"/>
   </g>
   <g id="patch_17">
    <path d="M 60.3 597.12
L 1067.04 597.12
" style="fill: none; stroke: #cccccc; stroke-width: 1.25; stroke-linejoin: miter; stroke-linecap: square"/>
   </g>
   <g id="text_53">
    <!-- Step Displacement Over Time (Illustrating No Backward Motion) -->
    <g style="fill: #262626" transform="translate(339.631719 591.12) scale(0.14 -0.14)">
     <defs>
      <path id="DejaVuSans-4f" d="M 2522 4238
Q 1834 4238 1429 3725
Q 1025 3213 1025 2328
Q 1025 1447 1429 934
Q 1834 422 2522 422
Q 3209 422 3611 934
Q 4013 1447 4013 2328
Q 4013 3213 3611 3725
Q 3209 4238 2522 4238
z
M 2522 4750
Q 3503 4750 4090 4092
Q 4678 3434 4678 2328
Q 4678 1225 4090 567
Q 3503 -91 2522 -91
Q 1538 -91 948 565
Q 359 1222 359 2328
Q 359 3434 948 4092
Q 1538 4750 2522 4750
z
" transform="scale(0.015625)"/>
      <path id="DejaVuSans-49" d="M 628 4666
L 1259 4666
L 1259 0
L 628 0
L 628 4666
z
" transform="scale(0.015625)"/>
      <path id="DejaVuSans-4e" d="M 628 4666
L 1478 4666
L 3547 763
L 3547 4666
L 4159 4666
L 4159 0
L 3309 0
L 1241 3903
L 1241 0
L 628 0
L 628 4666
z
" transform="scale(0.015625)"/>
      <path id="DejaVuSans-42" d="M 1259 2228
L 1259 519
L 2272 519
Q 2781 519 3026 730
Q 3272 941 3272 1375
Q 3272 1813 3026 2020
Q 2781 2228 2272 2228
L 1259 2228
z
M 1259 4147
L 1259 2741
L 2194 2741
Q 2656 2741 2882 2914
Q 3109 3088 3109 3444
Q 3109 3797 2882 3972
Q 2656 4147 2194 4147
L 1259 4147
z
M 628 4666
L 2241 4666
Q 2963 4666 3353 4366
Q 3744 4066 3744 3513
Q 3744 3084 3544 2831
Q 3344 2578 2956 2516
Q 3422 2416 3680 2098
Q 3938 1781 3938 1306
Q 3938 681 3513 340
Q 3088 0 2303 0
L 628 0
L 628 4666
z
" transform="scale(0.015625)"/>
      <path id="DejaVuSans-77" d="M 269 3500
L 844 3500
L 1563 769
L 2278 3500
L 2956 3500
L 3675 769
L 4391 3500
L 4966 3500
L 4050 0
L 3372 0
L 2619 2869
L 1863 0
L 1184 0
L 269 3500
z
" transform="scale(0.015625)"/>
      <path id="DejaVuSans-4d" d="M 628 4666
L 1569 4666
L 2759 1491
L 3956 4666
L 4897 4666
L 4897 0
L 4281 0
L 4281 4097
L 3078 897
L 2444 897
L 1241 4097
L 1241 0
L 628 0
L 628 4666
z
" transform="scale(0.015625)"/>
     </defs>
     <use xlink:href="#DejaVuSans-53"/>
     <use xlink:href="#DejaVuSans-74" transform="translate(63.476562 0)"/>
     <use xlink:href="#DejaVuSans-65" transform="translate(102.685547 0)"/>
     <use xlink:href="#DejaVuSans-70" transform="translate(164.208984 0)"/>
     <use xlink:href="#DejaVuSans-20" transform="translate(227.685547 0)"/>
     <use xlink:href="#DejaVuSans-44" transform="translate(259.472656 0)"/>
     <use xlink:href="#DejaVuSans-69" transform="translate(336.474609 0)"/>
     <use xlink:href="#DejaVuSans-73" transform="translate(364.257812 0)"/>
     <use xlink:href="#DejaVuSans-70" transform="translate(416.357422 0)"/>
     <use xlink:href="#DejaVuSans-6c" transform="translate(479.833984 0)"/>
     <use xlink:href="#DejaVuSans-61" transform="translate(507.617188 0)"/>
     <use xlink:href="#DejaVuSans-63" transform="translate(568.896484 0)"/>
     <use xlink:href="#DejaVuSans-65" transform="translate(623.876953 0)"/>
     <use xlink:href="#DejaVuSans-6d" transform="translate(685.400391 0)"/>
     <use xlink:href="#DejaVuSans-65" transform="translate(782.8125 0)"/>
     <use xlink:href="#DejaVuSans-6e" transform="translate(844.335938 0)"/>
     <use xlink:href="#DejaVuSans-74" transform="translate(907.714844 0)"/>
     <use xlink:href="#DejaVuSans-20" transform="translate(946.923828 0)"/>
     <use xlink:href="#DejaVuSans-4f" transform="translate(978.710938 0)"/>
     <use xlink:href="#DejaVuSans-76" transform="translate(1057.421875 0)"/>
     <use xlink:href="#DejaVuSans-65" transform="translate(1116.601562 0)"/>
     <use xlink:href="#DejaVuSans-72" transform="translate(1178.125 0)"/>
     <use xlink:href="#DejaVuSans-20" transform="translate(1219.238281 0)"/>
     <use xlink:href="#DejaVuSans-54" transform="translate(1251.025391 0)"/>
     <use xlink:href="#DejaVuSans-69" transform="translate(1308.984375 0)"/>
     <use xlink:href="#DejaVuSans-6d" transform="translate(1336.767578 0)"/>
     <use xlink:href="#DejaVuSans-65" transform="translate(1434.179688 0)"/>
     <use xlink:href="#DejaVuSans-20" transform="translate(1495.703125 0)"/>
     <use xlink:href="#DejaVuSans-28" transform="translate(1527.490234 0)"/>
     <use xlink:href="#DejaVuSans-49" transform="translate(1566.503906 0)"/>
     <use xlink:href="#DejaVuSans-6c" transform="translate(1595.996094 0)"/>
     <use xlink:href="#DejaVuSans-6c" transform="translate(1623.779297 0)"/>
     <use xlink:href="#DejaVuSans-75" transform="translate(1651.5625 0)"/>
     <use xlink:href="#DejaVuSans-73" transform="translate(1714.941406 0)"/>
     <use xlink:href="#DejaVuSans-74" transform="translate(1767.041016 0)"/>
     <use xlink:href="#DejaVuSans-72" transform="translate(1806.25 0)"/>
     <use xlink:href="#DejaVuSans-61" transform="translate(1847.363281 0)"/>
     <use xlink:href="#DejaVuSans-74" transform="translate(1908.642578 0)"/>
     <use xlink:href="#DejaVuSans-69" transform="translate(1947.851562 0)"/>
     <use xlink:href="#DejaVuSans-6e" transform="translate(1975.634766 0)"/>
     <use xlink:href="#DejaVuSans-67" transform="translate(2039.013672 0)"/>
     <use xlink:href="#DejaVuSans-20" transform="translate(2102.490234 0)"/>
     <use xlink:href="#DejaVuSans-4e" transform="translate(2134.277344 0)"/>
     <use xlink:href="#DejaVuSans-6f" transform="translate(2209.082031 0)"/>
     <use xlink:href="#DejaVuSans-20" transform="translate(2270.263672 0)"/>
     <use xlink:href="#DejaVuSans-42" transform="translate(2302.050781 0)"/>
     <use xlink:href="#DejaVuSans-61" transform="translate(2370.654297 0)"/>
     <use xlink:href="#DejaVuSans-63" transform="translate(2431.933594 0)"/>
     <use xlink:href="#DejaVuSans-6b" transform="translate(2486.914062 0)"/>
     <use xlink:href="#DejaVuSans-77" transform="translate(2544.824219 0)"/>
     <use xlink:href="#DejaVuSans-61" transform="translate(2626.611328 0)"/>
     <use xlink:href="#DejaVuSans-72" transform="translate(2687.890625 0)"/>
     <use xlink:href="#DejaVuSans-64" transform="translate(2727.253906 0)"/>
     <use xlink:href="#DejaVuSans-20" transform="translate(2790.730469 0)"/>
     <use xlink:href="#DejaVuSans-4d" transform="translate(2822.517578 0)"/>
     <use xlink:href="#DejaVuSans-6f" transform="translate(2908.796875 0)"/>
     <use xlink:href="#DejaVuSans-74" transform="translate(2969.978516 0)"/>
     <use xlink:href="#DejaVuSans-69" transform="translate(3009.1875 0)"/>
     <use xlink:href="#DejaVuSans-6f" transform="translate(3036.970703 0)"/>
     <use xlink:href="#DejaVuSans-6e" transform="translate(3098.152344 0)"/>
     <use xlink:href="#DejaVuSans-29" transform="translate(3161.53125 0)"/>
    </g>
   </g>
  </g>
 </g>
 <defs>
  <clipPath id="pb3bf763499">
   <rect x="60.3" y="29.76" width="1006.74" height="216.66"/>
  </clipPath>
  <clipPath id="p4f2d0c32ea">
   <rect x="60.3" y="313.44" width="1006.74" height="216.66"/>
  </clipPath>
  <clipPath id="p7f0ababece">
   <rect x="60.3" y="597.12" width="1006.74" height="216.66"/>
  </clipPath>
 </defs>
</svg>
